<svg xmlns="http://www.w3.org/2000/svg" viewBox="0 0 1920 919" preserveAspectRatio="xMidYMid" width="1920" height="919" xmlns:xlink="http://www.w3.org/1999/xlink" style="shape-rendering:auto;display:block;background-position-x:0%;background-position-y:0%;background-size:auto;background-origin:padding-box;background-clip:border-box;background:scroll rgb(0, 0, 0) none  repeat;width:1920px;height:919px;;animation:none"><g><defs><linearGradient gradientUnits="userSpaceOnUse" y2="153.66000000000003" y1="0" x2="0" x1="0" id="ldbk-photon-hmtduo7bze8-lg"><stop offset="0" stop-color="#987e46"></stop>

    
<stop offset="1" stop-color="#f2da0c"></stop></linearGradient>

  
<mask id="ldbk-photon-hmtduo7bze8-mask"><g><path fill="#fff" d="M-0.5 -300 L-0.5 170.3388992908556 A15 15 0 0 0 30.5 170.3388992908556 L30.5 -300" transform="matrix(1,0,0,1,0,0)" style="fill:rgb(255, 255, 255);transform:matrix(1, 0, 0, 1, 0, 0);;animation:none"></path>
<path fill="#fff" d="M-0.5 127.35562917518496 L-0.5 140.3388992908556 A15 15 0 0 0 30.5 140.3388992908556 L30.5 127.35562917518496 A15 15 0 0 0 -0.5 127.35562917518496" transform="matrix(1,0,0,1,0,0)" opacity="1" style="fill:rgb(255, 255, 255);transform:matrix(1, 0, 0, 1, 0, 0);;animation:none"></path>
<path fill="#fff" d="M29.5 -300 L29.5 130.55887750566137 A15 15 0 0 1 60.5 130.55887750566137 L60.5 -300" transform="matrix(1,0,0,1,0,-6.5025787353515625)" style="fill:rgb(255, 255, 255);transform:matrix(1, 0, 0, 1, 0, -6.50258);;animation:none"></path>
<path fill="#000" d="M29.5 -55.46609256563198 L29.5 -30 A15 15 0 0 0 60.5 -30 L60.5 -55.46609256563198 A15 15 0 0 0 29.5 -55.46609256563198" transform="matrix(1,0,0,1,0,0)" opacity="1" style="fill:rgb(0, 0, 0);transform:matrix(1, 0, 0, 1, 0, 0);;animation:none"></path>
<path fill="#fff" d="M59.5 -300 L59.5 147.83381729264482 A15 15 0 0 0 90.5 147.83381729264482 L90.5 -300" transform="matrix(1,0,0,1,0,26.751977920532227)" style="fill:rgb(255, 255, 255);transform:matrix(1, 0, 0, 1, 0, 26.752);;animation:none"></path>
<path fill="#fff" d="M59.5 96.20976468250957 L59.5 117.83381729264482 A15 15 0 0 0 90.5 117.83381729264482 L90.5 96.20976468250957 A15 15 0 0 0 59.5 96.20976468250957" transform="matrix(1,0,0,1,0,50.56810760498047)" opacity="1" style="fill:rgb(255, 255, 255);transform:matrix(1, 0, 0, 1, 0, 50.5681);;animation:none"></path>
<path fill="#fff" d="M89.5 -300 L89.5 123.88331278337168 A15 15 0 0 1 120.5 123.88331278337168 L120.5 -300" transform="matrix(1,0,0,1,0,-61.68703079223633)" style="fill:rgb(255, 255, 255);transform:matrix(1, 0, 0, 1, 0, -61.687);;animation:none"></path>
<path fill="#000" d="M89.5 -52.43047299095299 L89.5 -30 A15 15 0 0 0 120.5 -30 L120.5 -52.43047299095299 A15 15 0 0 0 89.5 -52.43047299095299" transform="matrix(1,0,0,1,0,0)" opacity="0.825893" style="fill:rgb(0, 0, 0);transform:matrix(1, 0, 0, 1, 0, 0);opacity:0.825893;;animation:none"></path>
<path fill="#fff" d="M119.5 -300 L119.5 217.2935059047977 A15 15 0 0 0 150.5 217.2935059047977 L150.5 -300" transform="matrix(1,0,0,1,0,9.638961791992188)" style="fill:rgb(255, 255, 255);transform:matrix(1, 0, 0, 1, 0, 9.63896);;animation:none"></path>
<path fill="#fff" d="M119.5 172.97756055894874 L119.5 187.2935059047977 A15 15 0 0 0 150.5 187.2935059047977 L150.5 172.97756055894874 A15 15 0 0 0 119.5 172.97756055894874" transform="matrix(1,0,0,1,0,108.62203216552734)" opacity="0.892857" style="fill:rgb(255, 255, 255);transform:matrix(1, 0, 0, 1, 0, 108.622);opacity:0.892857;;animation:none"></path>
<path fill="#fff" d="M149.5 -300 L149.5 135.29378274875825 A15 15 0 0 1 180.5 135.29378274875825 L180.5 -300" transform="matrix(1,0,0,1,0,-65.09491729736328)" style="fill:rgb(255, 255, 255);transform:matrix(1, 0, 0, 1, 0, -65.0949);;animation:none"></path>
<path fill="#000" d="M149.5 -41.949555207519765 L149.5 -30 A15 15 0 0 0 180.5 -30 L180.5 -41.949555207519765 A15 15 0 0 0 149.5 -41.949555207519765" transform="matrix(1,0,0,1,0,0)" opacity="0.424107" style="fill:rgb(0, 0, 0);transform:matrix(1, 0, 0, 1, 0, 0);opacity:0.424107;;animation:none"></path>
<path fill="#fff" d="M179.5 -300 L179.5 178.7646053606798 A15 15 0 0 0 210.5 178.7646053606798 L210.5 -300" transform="matrix(1,0,0,1,0,37.277374267578125)" style="fill:rgb(255, 255, 255);transform:matrix(1, 0, 0, 1, 0, 37.2774);;animation:none"></path>
<path fill="#fff" d="M179.5 121.85771859271887 L179.5 148.7646053606798 A15 15 0 0 0 210.5 148.7646053606798 L210.5 121.85771859271887 A15 15 0 0 0 179.5 121.85771859271887" transform="matrix(1,0,0,1,0,167.2908935546875)" opacity="0.625" style="fill:rgb(255, 255, 255);transform:matrix(1, 0, 0, 1, 0, 167.291);opacity:0.625;;animation:none"></path>
<path fill="#fff" d="M209.5 -300 L209.5 156.08272317466833 A15 15 0 0 1 240.5 156.08272317466833 L240.5 -300" transform="matrix(1,0,0,1,0,-0.07039260864257812)" style="fill:rgb(255, 255, 255);transform:matrix(1, 0, 0, 1, 0, -0.0703926);;animation:none"></path>
<path fill="#000" d="M209.5 -54.336672685070795 L209.5 -30 A15 15 0 0 0 240.5 -30 L240.5 -54.336672685070795 A15 15 0 0 0 209.5 -54.336672685070795" transform="matrix(1,0,0,1,0,0)" opacity="0.959822" style="fill:rgb(0, 0, 0);transform:matrix(1, 0, 0, 1, 0, 0);opacity:0.959822;;animation:none"></path>
<path fill="#fff" d="M239.5 -300 L239.5 212.9726108069556 A15 15 0 0 0 270.5 212.9726108069556 L270.5 -300" transform="matrix(1,0,0,1,0,4.094347953796387)" style="fill:rgb(255, 255, 255);transform:matrix(1, 0, 0, 1, 0, 4.09435);;animation:none"></path>
<path fill="#fff" d="M239.5 168.19409873627424 L239.5 182.9726108069556 A15 15 0 0 0 270.5 182.9726108069556 L270.5 168.19409873627424 A15 15 0 0 0 239.5 168.19409873627424" transform="matrix(1,0,0,1,0,94.5548324584961)" opacity="0.892857" style="fill:rgb(255, 255, 255);transform:matrix(1, 0, 0, 1, 0, 94.5548);opacity:0.892857;;animation:none"></path>
<path fill="#fff" d="M269.5 -300 L269.5 150.53430948781585 A15 15 0 0 1 300.5 150.53430948781585 L300.5 -300" transform="matrix(1,0,0,1,0,-22.412567138671875)" style="fill:rgb(255, 255, 255);transform:matrix(1, 0, 0, 1, 0, -22.4126);;animation:none"></path>
<path fill="#000" d="M269.5 -66.81498485495605 L269.5 -30 A15 15 0 0 0 300.5 -30 L300.5 -66.81498485495605 A15 15 0 0 0 269.5 -66.81498485495605" transform="matrix(1,0,0,1,0,0)" opacity="1" style="fill:rgb(0, 0, 0);transform:matrix(1, 0, 0, 1, 0, 0);;animation:none"></path>
<path fill="#fff" d="M299.5 -300 L299.5 220.04584938852759 A15 15 0 0 0 330.5 220.04584938852759 L330.5 -300" transform="matrix(1,0,0,1,0,33.89425277709961)" style="fill:rgb(255, 255, 255);transform:matrix(1, 0, 0, 1, 0, 33.8943);;animation:none"></path>
<path fill="#fff" d="M299.5 174.20350544201824 L299.5 190.04584938852759 A15 15 0 0 0 330.5 190.04584938852759 L330.5 174.20350544201824 A15 15 0 0 0 299.5 174.20350544201824" transform="matrix(1,0,0,1,0,200.56480407714844)" opacity="0.0892857" style="fill:rgb(255, 255, 255);transform:matrix(1, 0, 0, 1, 0, 200.565);opacity:0.0892857;;animation:none"></path>
<path fill="#fff" d="M329.5 -300 L329.5 159.6205060126207 A15 15 0 0 1 360.5 159.6205060126207 L360.5 -300" transform="matrix(1,0,0,1,0,-35.53363800048828)" style="fill:rgb(255, 255, 255);transform:matrix(1, 0, 0, 1, 0, -35.5336);;animation:none"></path>
<path fill="#000" d="M329.5 -56.03280854240509 L329.5 -29.999999999999996 A15 15 0 0 0 360.5 -29.999999999999996 L360.5 -56.03280854240509 A15 15 0 0 0 329.5 -56.03280854240509" transform="matrix(1,0,0,1,0,0)" opacity="0.647321" style="fill:rgb(0, 0, 0);transform:matrix(1, 0, 0, 1, 0, 0);opacity:0.647321;;animation:none"></path>
<path fill="#fff" d="M359.5 -300 L359.5 182.72711485836788 A15 15 0 0 0 390.5 182.72711485836788 L390.5 -300" transform="matrix(1,0,0,1,0,4.270506858825684)" style="fill:rgb(255, 255, 255);transform:matrix(1, 0, 0, 1, 0, 4.27051);;animation:none"></path>
<path fill="#fff" d="M359.5 135.92123600055552 L359.5 152.72711485836788 A15 15 0 0 0 390.5 152.72711485836788 L390.5 135.92123600055552 A15 15 0 0 0 359.5 135.92123600055552" transform="matrix(1,0,0,1,0,147.58546447753906)" opacity="0.446428" style="fill:rgb(255, 255, 255);transform:matrix(1, 0, 0, 1, 0, 147.585);opacity:0.446428;;animation:none"></path>
<path fill="#fff" d="M389.5 -300 L389.5 147.04603624794436 A15 15 0 0 1 420.5 147.04603624794436 L420.5 -300" transform="matrix(1,0,0,1,0,-35.93196105957031)" style="fill:rgb(255, 255, 255);transform:matrix(1, 0, 0, 1, 0, -35.932);;animation:none"></path>
<path fill="#000" d="M389.5 -66.52522956606758 L389.5 -30 A15 15 0 0 0 420.5 -30 L420.5 -66.52522956606758 A15 15 0 0 0 389.5 -66.52522956606758" transform="matrix(1,0,0,1,0,0)" opacity="1" style="fill:rgb(0, 0, 0);transform:matrix(1, 0, 0, 1, 0, 0);;animation:none"></path>
<path fill="#fff" d="M419.5 -300 L419.5 183.892486857022 A15 15 0 0 0 450.5 183.892486857022 L450.5 -300" transform="matrix(1,0,0,1,0,29.049341201782227)" style="fill:rgb(255, 255, 255);transform:matrix(1, 0, 0, 1, 0, 29.0493);;animation:none"></path>
<path fill="#fff" d="M419.5 119.79523573516639 L419.5 153.892486857022 A15 15 0 0 0 450.5 153.892486857022 L450.5 119.79523573516639 A15 15 0 0 0 419.5 119.79523573516639" transform="matrix(1,0,0,1,0,268.41796875)" opacity="0.0446419" style="fill:rgb(255, 255, 255);transform:matrix(1, 0, 0, 1, 0, 268.418);opacity:0.0446419;;animation:none"></path>
<path fill="#fff" d="M449.5 -300 L449.5 162.36464367985184 A15 15 0 0 1 480.5 162.36464367985184 L480.5 -300" transform="matrix(1,0,0,1,0,-44.419437408447266)" style="fill:rgb(255, 255, 255);transform:matrix(1, 0, 0, 1, 0, -44.4194);;animation:none"></path>
<path fill="#000" d="M449.5 -63.43268226905417 L449.5 -30 A15 15 0 0 0 480.5 -30 L480.5 -63.43268226905417 A15 15 0 0 0 449.5 -63.43268226905417" transform="matrix(1,0,0,1,0,0)" opacity="0.848214" style="fill:rgb(0, 0, 0);transform:matrix(1, 0, 0, 1, 0, 0);opacity:0.848214;;animation:none"></path>
<path fill="#fff" d="M479.5 -300 L479.5 221.4136591769288 A15 15 0 0 0 510.5 221.4136591769288 L510.5 -300" transform="matrix(1,0,0,1,0,17.888652801513672)" style="fill:rgb(255, 255, 255);transform:matrix(1, 0, 0, 1, 0, 17.8887);;animation:none"></path>
<path fill="#fff" d="M479.5 153.66302198727385 L479.5 191.4136591769288 A15 15 0 0 0 510.5 191.4136591769288 L510.5 153.66302198727385 A15 15 0 0 0 479.5 153.66302198727385" transform="matrix(1,0,0,1,0,124.96199798583984)" opacity="0.714285" style="fill:rgb(255, 255, 255);transform:matrix(1, 0, 0, 1, 0, 124.962);opacity:0.714285;;animation:none"></path>
<path fill="#fff" d="M509.5 -300 L509.5 167.1045473679021 A15 15 0 0 1 540.5 167.1045473679021 L540.5 -300" transform="matrix(1,0,0,1,0,-42.052040100097656)" style="fill:rgb(255, 255, 255);transform:matrix(1, 0, 0, 1, 0, -42.052);;animation:none"></path>
<path fill="#000" d="M509.5 -55.49434569195059 L509.5 -30 A15 15 0 0 0 540.5 -30 L540.5 -55.49434569195059 A15 15 0 0 0 509.5 -55.49434569195059" transform="matrix(1,0,0,1,0,0)" opacity="0.290179" style="fill:rgb(0, 0, 0);transform:matrix(1, 0, 0, 1, 0, 0);opacity:0.290179;;animation:none"></path>
<path fill="#fff" d="M539.5 -300 L539.5 193.56128716542108 A15 15 0 0 0 570.5 193.56128716542108 L570.5 -300" transform="matrix(1,0,0,1,0,8.466796875)" style="fill:rgb(255, 255, 255);transform:matrix(1, 0, 0, 1, 0, 8.4668);;animation:none"></path>
<path fill="#fff" d="M539.5 145.34589475059678 L539.5 163.56128716542108 A15 15 0 0 0 570.5 163.56128716542108 L570.5 145.34589475059678 A15 15 0 0 0 539.5 145.34589475059678" transform="matrix(1,0,0,1,0,203.3889617919922)" opacity="0.223214" style="fill:rgb(255, 255, 255);transform:matrix(1, 0, 0, 1, 0, 203.389);opacity:0.223214;;animation:none"></path>
<path fill="#fff" d="M569.5 -300 L569.5 178.34810610659378 A15 15 0 0 1 600.5 178.34810610659378 L600.5 -300" transform="matrix(1,0,0,1,0,-3.9310302734375)" style="fill:rgb(255, 255, 255);transform:matrix(1, 0, 0, 1, 0, -3.93103);;animation:none"></path>
<path fill="#000" d="M569.5 -66.93679557496932 L569.5 -29.999999999999993 A15 15 0 0 0 600.5 -29.999999999999993 L600.5 -66.93679557496932 A15 15 0 0 0 569.5 -66.93679557496932" transform="matrix(1,0,0,1,0,0)" opacity="0.3125" style="fill:rgb(0, 0, 0);transform:matrix(1, 0, 0, 1, 0, 0);opacity:0.3125;;animation:none"></path>
<path fill="#fff" d="M599.5 -300 L599.5 202.9947587963208 A15 15 0 0 0 630.5 202.9947587963208 L630.5 -300" transform="matrix(1,0,0,1,0,4.072887420654297)" style="fill:rgb(255, 255, 255);transform:matrix(1, 0, 0, 1, 0, 4.07289);;animation:none"></path>
<path fill="#fff" d="M599.5 133.210000420283 L599.5 172.9947587963208 A15 15 0 0 0 630.5 172.9947587963208 L630.5 133.210000420283 A15 15 0 0 0 599.5 133.210000420283" transform="matrix(1,0,0,1,0,233.2332305908203)" opacity="0.0892856" style="fill:rgb(255, 255, 255);transform:matrix(1, 0, 0, 1, 0, 233.233);opacity:0.0892856;;animation:none"></path>
<path fill="#fff" d="M629.5 -300 L629.5 156.18082509618011 A15 15 0 0 1 660.5 156.18082509618011 L660.5 -300" transform="matrix(1,0,0,1,0,-0.3276405334472656)" style="fill:rgb(255, 255, 255);transform:matrix(1, 0, 0, 1, 0, -0.327641);;animation:none"></path>
<path fill="#000" d="M629.5 -59.36330962565489 L629.5 -30 A15 15 0 0 0 660.5 -30 L660.5 -59.36330962565489 A15 15 0 0 0 629.5 -59.36330962565489" transform="matrix(1,0,0,1,0,0)" opacity="0.0223215" style="fill:rgb(0, 0, 0);transform:matrix(1, 0, 0, 1, 0, 0);opacity:0.0223215;;animation:none"></path>
<path fill="#fff" d="M659.5 -300 L659.5 221.10747548833075 A15 15 0 0 0 690.5 221.10747548833075 L690.5 -300" transform="matrix(1,0,0,1,0,0.20809602737426758)" style="fill:rgb(255, 255, 255);transform:matrix(1, 0, 0, 1, 0, 0.208096);;animation:none"></path>
<path fill="#fff" d="M659.5 156.55901301071643 L659.5 191.10747548833075 A15 15 0 0 0 690.5 191.10747548833075 L690.5 156.55901301071643 A15 15 0 0 0 659.5 156.55901301071643" transform="matrix(1,0,0,1,0,8.80963134765625)" opacity="1" style="fill:rgb(255, 255, 255);transform:matrix(1, 0, 0, 1, 0, 8.80963);;animation:none"></path>
<path fill="#fff" d="M689.5 -300 L689.5 147.27223424059463 A15 15 0 0 1 720.5 147.27223424059463 L720.5 -300" transform="matrix(1,0,0,1,0,-23.462800979614258)" style="fill:rgb(255, 255, 255);transform:matrix(1, 0, 0, 1, 0, -23.4628);;animation:none"></path>
<path fill="#000" d="M689.5 -47.40543348071084 L689.5 -30.000000000000004 A15 15 0 0 0 720.5 -30.000000000000004 L720.5 -47.40543348071084 A15 15 0 0 0 689.5 -47.40543348071084" transform="matrix(1,0,0,1,0,0)" opacity="1" style="fill:rgb(0, 0, 0);transform:matrix(1, 0, 0, 1, 0, 0);;animation:none"></path>
<path fill="#fff" d="M719.5 -300 L719.5 171.47979849496184 A15 15 0 0 0 750.5 171.47979849496184 L750.5 -300" transform="matrix(1,0,0,1,0,35.702796936035156)" style="fill:rgb(255, 255, 255);transform:matrix(1, 0, 0, 1, 0, 35.7028);;animation:none"></path>
<path fill="#fff" d="M719.5 101.79062166323035 L719.5 141.47979849496187 A15 15 0 0 0 750.5 141.47979849496187 L750.5 101.79062166323035 A15 15 0 0 0 719.5 101.79062166323035" transform="matrix(1,0,0,1,0,55.255069732666016)" opacity="1" style="fill:rgb(255, 255, 255);transform:matrix(1, 0, 0, 1, 0, 55.2551);;animation:none"></path>
<path fill="#fff" d="M749.5 -300 L749.5 159.44324746411124 A15 15 0 0 1 780.5 159.44324746411124 L780.5 -300" transform="matrix(1,0,0,1,0,-34.96491241455078)" style="fill:rgb(255, 255, 255);transform:matrix(1, 0, 0, 1, 0, -34.9649);;animation:none"></path>
<path fill="#000" d="M749.5 -43.09228966406548 L749.5 -30 A15 15 0 0 0 780.5 -30 L780.5 -43.09228966406548 A15 15 0 0 0 749.5 -43.09228966406548" transform="matrix(1,0,0,1,0,0)" opacity="0.937499" style="fill:rgb(0, 0, 0);transform:matrix(1, 0, 0, 1, 0, 0);opacity:0.937499;;animation:none"></path>
<path fill="#fff" d="M779.5 -300 L779.5 207.14862259368465 A15 15 0 0 0 810.5 207.14862259368465 L810.5 -300" transform="matrix(1,0,0,1,0,49.66978454589844)" style="fill:rgb(255, 255, 255);transform:matrix(1, 0, 0, 1, 0, 49.6698);;animation:none"></path>
<path fill="#fff" d="M779.5 151.8513270330113 L779.5 177.14862259368465 A15 15 0 0 0 810.5 177.14862259368465 L810.5 151.8513270330113 A15 15 0 0 0 779.5 151.8513270330113" transform="matrix(1,0,0,1,0,144.751953125)" opacity="0.491069" style="fill:rgb(255, 255, 255);transform:matrix(1, 0, 0, 1, 0, 144.752);opacity:0.491069;;animation:none"></path>
<path fill="#fff" d="M809.5 -300 L809.5 173.97149236040931 A15 15 0 0 1 840.5 173.97149236040931 L840.5 -300" transform="matrix(1,0,0,1,0,-15.768348693847656)" style="fill:rgb(255, 255, 255);transform:matrix(1, 0, 0, 1, 0, -15.7683);;animation:none"></path>
<path fill="#000" d="M809.5 -44.68952367324885 L809.5 -30 A15 15 0 0 0 840.5 -30 L840.5 -44.68952367324885 A15 15 0 0 0 809.5 -44.68952367324885" transform="matrix(1,0,0,1,0,0)" opacity="1" style="fill:rgb(0, 0, 0);transform:matrix(1, 0, 0, 1, 0, 0);;animation:none"></path>
<path fill="#fff" d="M839.5 -300 L839.5 195.46637090993298 A15 15 0 0 0 870.5 195.46637090993298 L870.5 -300" transform="matrix(1,0,0,1,0,0.821014404296875)" style="fill:rgb(255, 255, 255);transform:matrix(1, 0, 0, 1, 0, 0.821014);;animation:none"></path>
<path fill="#fff" d="M839.5 133.95965403933783 L839.5 165.46637090993298 A15 15 0 0 0 870.5 165.46637090993298 L870.5 133.95965403933783 A15 15 0 0 0 839.5 133.95965403933783" transform="matrix(1,0,0,1,0,89.19134521484375)" opacity="0.982143" style="fill:rgb(255, 255, 255);transform:matrix(1, 0, 0, 1, 0, 89.1913);opacity:0.982143;;animation:none"></path>
<path fill="#fff" d="M869.5 -300 L869.5 157.75478309957012 A15 15 0 0 1 900.5 157.75478309957012 L900.5 -300" transform="matrix(1,0,0,1,0,-26.827924728393555)" style="fill:rgb(255, 255, 255);transform:matrix(1, 0, 0, 1, 0, -26.8279);;animation:none"></path>
<path fill="#000" d="M869.5 -66.32354565052687 L869.5 -30 A15 15 0 0 0 900.5 -30 L900.5 -66.32354565052687 A15 15 0 0 0 869.5 -66.32354565052687" transform="matrix(1,0,0,1,0,0)" opacity="0.401785" style="fill:rgb(0, 0, 0);transform:matrix(1, 0, 0, 1, 0, 0);opacity:0.401785;;animation:none"></path>
<path fill="#fff" d="M899.5 -300 L899.5 203.00749777789355 A15 15 0 0 0 930.5 203.00749777789355 L930.5 -300" transform="matrix(1,0,0,1,0,13.873966217041016)" style="fill:rgb(255, 255, 255);transform:matrix(1, 0, 0, 1, 0, 13.874);;animation:none"></path>
<path fill="#fff" d="M899.5 154.962919359395 L899.5 173.00749777789355 A15 15 0 0 0 930.5 173.00749777789355 L930.5 154.962919359395 A15 15 0 0 0 899.5 154.962919359395" transform="matrix(1,0,0,1,0,179.69178771972656)" opacity="0.267857" style="fill:rgb(255, 255, 255);transform:matrix(1, 0, 0, 1, 0, 179.692);opacity:0.267857;;animation:none"></path>
<path fill="#fff" d="M929.5 -300 L929.5 140.4127067917972 A15 15 0 0 1 960.5 140.4127067917972 L960.5 -300" transform="matrix(1,0,0,1,0,-43.56753921508789)" style="fill:rgb(255, 255, 255);transform:matrix(1, 0, 0, 1, 0, -43.5675);;animation:none"></path>
<path fill="#000" d="M929.5 -43.71005062452676 L929.5 -30.000000000000004 A15 15 0 0 0 960.5 -30.000000000000004 L960.5 -43.71005062452676 A15 15 0 0 0 929.5 -43.71005062452676" transform="matrix(1,0,0,1,0,0)" opacity="0.78125" style="fill:rgb(0, 0, 0);transform:matrix(1, 0, 0, 1, 0, 0);opacity:0.78125;;animation:none"></path>
<path fill="#fff" d="M959.5 -300 L959.5 141.01566020971205 A15 15 0 0 0 990.5 141.01566020971205 L990.5 -300" transform="matrix(1,0,0,1,0,60.45219421386719)" style="fill:rgb(255, 255, 255);transform:matrix(1, 0, 0, 1, 0, 60.4522);;animation:none"></path>
<path fill="#fff" d="M959.5 92.89949795525612 L959.5 111.01566020971205 A15 15 0 0 0 990.5 111.01566020971205 L990.5 92.89949795525612 A15 15 0 0 0 959.5 92.89949795525612" transform="matrix(1,0,0,1,0,0.000181420095032081)" opacity="1" style="fill:rgb(255, 255, 255);transform:matrix(1, 0, 0, 1, 0, 0.00018142);;animation:none"></path>
<path fill="#fff" d="M989.5 -300 L989.5 120.13762240238515 A15 15 0 0 1 1020.5 120.13762240238515 L1020.5 -300" transform="matrix(1,0,0,1,0,-3.559241771697998)" style="fill:rgb(255, 255, 255);transform:matrix(1, 0, 0, 1, 0, -3.55924);;animation:none"></path>
<path fill="#000" d="M989.5 -69.33798298040978 L989.5 -30 A15 15 0 0 0 1020.5 -30 L1020.5 -69.33798298040978 A15 15 0 0 0 989.5 -69.33798298040978" transform="matrix(1,0,0,1,0,0)" opacity="1" style="fill:rgb(0, 0, 0);transform:matrix(1, 0, 0, 1, 0, 0);;animation:none"></path>
<path fill="#fff" d="M1019.5 -300 L1019.5 191.11895261225604 A15 15 0 0 0 1050.5 191.11895261225604 L1050.5 -300" transform="matrix(1,0,0,1,0,10.767447471618652)" style="fill:rgb(255, 255, 255);transform:matrix(1, 0, 0, 1, 0, 10.7674);;animation:none"></path>
<path fill="#fff" d="M1019.5 127.6195245718475 L1019.5 161.11895261225604 A15 15 0 0 0 1050.5 161.11895261225604 L1050.5 127.6195245718475 A15 15 0 0 0 1019.5 127.6195245718475" transform="matrix(1,0,0,1,0,160.315673828125)" opacity="0.312497" style="fill:rgb(255, 255, 255);transform:matrix(1, 0, 0, 1, 0, 160.316);opacity:0.312497;;animation:none"></path>
<path fill="#fff" d="M1049.5 -300 L1049.5 136.39827742889415 A15 15 0 0 1 1080.5 136.39827742889415 L1080.5 -300" transform="matrix(1,0,0,1,0,-45.870811462402344)" style="fill:rgb(255, 255, 255);transform:matrix(1, 0, 0, 1, 0, -45.8708);;animation:none"></path>
<path fill="#000" d="M1049.5 -47.65465676755838 L1049.5 -29.999999999999996 A15 15 0 0 0 1080.5 -29.999999999999996 L1080.5 -47.65465676755838 A15 15 0 0 0 1049.5 -47.65465676755838" transform="matrix(1,0,0,1,0,0)" opacity="0.513393" style="fill:rgb(0, 0, 0);transform:matrix(1, 0, 0, 1, 0, 0);opacity:0.513393;;animation:none"></path>
<path fill="#fff" d="M1079.5 -300 L1079.5 149.70213765273164 A15 15 0 0 0 1110.5 149.70213765273164 L1110.5 -300" transform="matrix(1,0,0,1,0,1.027843952178955)" style="fill:rgb(255, 255, 255);transform:matrix(1, 0, 0, 1, 0, 1.02784);;animation:none"></path>
<path fill="#fff" d="M1079.5 109.3927918564525 L1079.5 119.70213765273164 A15 15 0 0 0 1110.5 119.70213765273164 L1110.5 109.3927918564525 A15 15 0 0 0 1079.5 109.3927918564525" transform="matrix(1,0,0,1,0,17.37329864501953)" opacity="1" style="fill:rgb(255, 255, 255);transform:matrix(1, 0, 0, 1, 0, 17.3733);;animation:none"></path>
<path fill="#fff" d="M1109.5 -300 L1109.5 124.40384931951024 A15 15 0 0 1 1140.5 124.40384931951024 L1140.5 -300" transform="matrix(1,0,0,1,0,-30.746456146240234)" style="fill:rgb(255, 255, 255);transform:matrix(1, 0, 0, 1, 0, -30.7465);;animation:none"></path>
<path fill="#000" d="M1109.5 -68.63396671900664 L1109.5 -30 A15 15 0 0 0 1140.5 -30 L1140.5 -68.63396671900664 A15 15 0 0 0 1109.5 -68.63396671900664" transform="matrix(1,0,0,1,0,0)" opacity="0.758928" style="fill:rgb(0, 0, 0);transform:matrix(1, 0, 0, 1, 0, 0);opacity:0.758928;;animation:none"></path>
<path fill="#fff" d="M1139.5 -300 L1139.5 128.3680344040385 A15 15 0 0 0 1170.5 128.3680344040385 L1170.5 -300" transform="matrix(1,0,0,1,0,18.842470169067383)" style="fill:rgb(255, 255, 255);transform:matrix(1, 0, 0, 1, 0, 18.8425);;animation:none"></path>
<path fill="#fff" d="M1139.5 63.901425778664745 L1139.5 98.3680344040385 A15 15 0 0 0 1170.5 98.3680344040385 L1170.5 63.901425778664745 A15 15 0 0 0 1139.5 63.901425778664745" transform="matrix(1,0,0,1,0,152.98300170898438)" opacity="0.3125" style="fill:rgb(255, 255, 255);transform:matrix(1, 0, 0, 1, 0, 152.983);opacity:0.3125;;animation:none"></path>
<path fill="#fff" d="M1169.5 -300 L1169.5 120.41613847700778 A15 15 0 0 1 1200.5 120.41613847700778 L1200.5 -300" transform="matrix(1,0,0,1,0,-53.25579833984375)" style="fill:rgb(255, 255, 255);transform:matrix(1, 0, 0, 1, 0, -53.2558);;animation:none"></path>
<path fill="#000" d="M1169.5 -44.70514303927358 L1169.5 -30 A15 15 0 0 0 1200.5 -30 L1200.5 -44.70514303927358 A15 15 0 0 0 1169.5 -44.70514303927358" transform="matrix(1,0,0,1,0,0)" opacity="0.736604" style="fill:rgb(0, 0, 0);transform:matrix(1, 0, 0, 1, 0, 0);opacity:0.736604;;animation:none"></path>
<path fill="#fff" d="M1199.5 -300 L1199.5 184.1347441305187 A15 15 0 0 0 1230.5 184.1347441305187 L1230.5 -300" transform="matrix(1,0,0,1,0,55.32074737548828)" style="fill:rgb(255, 255, 255);transform:matrix(1, 0, 0, 1, 0, 55.3207);;animation:none"></path>
<path fill="#fff" d="M1199.5 114.51481934031048 L1199.5 154.1347441305187 A15 15 0 0 0 1230.5 154.1347441305187 L1230.5 114.51481934031048 A15 15 0 0 0 1199.5 114.51481934031048" transform="matrix(1,0,0,1,0,135.6734619140625)" opacity="0.535711" style="fill:rgb(255, 255, 255);transform:matrix(1, 0, 0, 1, 0, 135.673);opacity:0.535711;;animation:none"></path>
<path fill="#fff" d="M1229.5 -300 L1229.5 114.7902568574631 A15 15 0 0 1 1260.5 114.7902568574631 L1260.5 -300" transform="matrix(1,0,0,1,0,-1.6538619995117188)" style="fill:rgb(255, 255, 255);transform:matrix(1, 0, 0, 1, 0, -1.65386);;animation:none"></path>
<path fill="#000" d="M1229.5 -42.53437384316748 L1229.5 -30 A15 15 0 0 0 1260.5 -30 L1260.5 -42.53437384316748 A15 15 0 0 0 1229.5 -42.53437384316748" transform="matrix(1,0,0,1,0,0)" opacity="0.223213" style="fill:rgb(0, 0, 0);transform:matrix(1, 0, 0, 1, 0, 0);opacity:0.223213;;animation:none"></path>
<path fill="#fff" d="M1259.5 -300 L1259.5 165.39333584487008 A15 15 0 0 0 1290.5 165.39333584487008 L1290.5 -300" transform="matrix(1,0,0,1,0,0.2552490234375)" style="fill:rgb(255, 255, 255);transform:matrix(1, 0, 0, 1, 0, 0.255249);;animation:none"></path>
<path fill="#fff" d="M1259.5 100.94895706482984 L1259.5 135.39333584487008 A15 15 0 0 0 1290.5 135.39333584487008 L1290.5 100.94895706482984 A15 15 0 0 0 1259.5 100.94895706482984" transform="matrix(1,0,0,1,0,234.78085327148438)" opacity="0.0892847" style="fill:rgb(255, 255, 255);transform:matrix(1, 0, 0, 1, 0, 234.781);opacity:0.0892847;;animation:none"></path>
<path fill="#fff" d="M1289.5 -300 L1289.5 127.78323017861761 A15 15 0 0 1 1320.5 127.78323017861761 L1320.5 -300" transform="matrix(1,0,0,1,0,-0.2246677130460739)" style="fill:rgb(255, 255, 255);transform:matrix(1, 0, 0, 1, 0, -0.224668);;animation:none"></path>
<path fill="#000" d="M1289.5 -60.17034070659942 L1289.5 -30 A15 15 0 0 0 1320.5 -30 L1320.5 -60.17034070659942 A15 15 0 0 0 1289.5 -60.17034070659942" transform="matrix(1,0,0,1,0,0)" opacity="1" style="fill:rgb(0, 0, 0);transform:matrix(1, 0, 0, 1, 0, 0);;animation:none"></path>
<path fill="#fff" d="M1319.5 -300 L1319.5 150.05312608408923 A15 15 0 0 0 1350.5 150.05312608408923 L1350.5 -300" transform="matrix(1,0,0,1,0,4.214009761810303)" style="fill:rgb(255, 255, 255);transform:matrix(1, 0, 0, 1, 0, 4.21401);;animation:none"></path>
<path fill="#fff" d="M1319.5 107.22083358504071 L1319.5 120.05312608408923 A15 15 0 0 0 1350.5 120.05312608408923 L1350.5 107.22083358504071 A15 15 0 0 0 1319.5 107.22083358504071" transform="matrix(1,0,0,1,0,14.841676712036133)" opacity="1" style="fill:rgb(255, 255, 255);transform:matrix(1, 0, 0, 1, 0, 14.8417);;animation:none"></path>
<path fill="#fff" d="M1349.5 -300 L1349.5 135.3604122836498 A15 15 0 0 1 1380.5 135.3604122836498 L1380.5 -300" transform="matrix(1,0,0,1,0,-3.568009376525879)" style="fill:rgb(255, 255, 255);transform:matrix(1, 0, 0, 1, 0, -3.56801);;animation:none"></path>
<path fill="#000" d="M1349.5 -69.96974118277015 L1349.5 -30 A15 15 0 0 0 1380.5 -30 L1380.5 -69.96974118277015 A15 15 0 0 0 1349.5 -69.96974118277015" transform="matrix(1,0,0,1,0,0)" opacity="1" style="fill:rgb(0, 0, 0);transform:matrix(1, 0, 0, 1, 0, 0);;animation:none"></path>
<path fill="#fff" d="M1379.5 -300 L1379.5 149.68035058276163 A15 15 0 0 0 1410.5 149.68035058276163 L1410.5 -300" transform="matrix(1,0,0,1,0,40.307640075683594)" style="fill:rgb(255, 255, 255);transform:matrix(1, 0, 0, 1, 0, 40.3076);;animation:none"></path>
<path fill="#fff" d="M1379.5 81.27470969151244 L1379.5 119.68035058276163 A15 15 0 0 0 1410.5 119.68035058276163 L1410.5 81.27470969151244 A15 15 0 0 0 1379.5 81.27470969151244" transform="matrix(1,0,0,1,0,121.01739501953125)" opacity="0.758925" style="fill:rgb(255, 255, 255);transform:matrix(1, 0, 0, 1, 0, 121.017);opacity:0.758925;;animation:none"></path>
<path fill="#fff" d="M1409.5 -300 L1409.5 135.4368153772091 A15 15 0 0 1 1440.5 135.4368153772091 L1440.5 -300" transform="matrix(1,0,0,1,0,-45.05585479736328)" style="fill:rgb(255, 255, 255);transform:matrix(1, 0, 0, 1, 0, -45.0559);;animation:none"></path>
<path fill="#000" d="M1409.5 -49.9794958490009 L1409.5 -30 A15 15 0 0 0 1440.5 -30 L1440.5 -49.9794958490009 A15 15 0 0 0 1409.5 -49.9794958490009" transform="matrix(1,0,0,1,0,0)" opacity="0.848213" style="fill:rgb(0, 0, 0);transform:matrix(1, 0, 0, 1, 0, 0);opacity:0.848213;;animation:none"></path>
<path fill="#fff" d="M1439.5 -300 L1439.5 171.62637525268755 A15 15 0 0 0 1470.5 171.62637525268755 L1470.5 -300" transform="matrix(1,0,0,1,0,20.793128967285156)" style="fill:rgb(255, 255, 255);transform:matrix(1, 0, 0, 1, 0, 20.7931);;animation:none"></path>
<path fill="#fff" d="M1439.5 121.95801361716576 L1439.5 141.62637525268755 A15 15 0 0 0 1470.5 141.62637525268755 L1470.5 121.95801361716576 A15 15 0 0 0 1439.5 121.95801361716576" transform="matrix(1,0,0,1,0,204.2217254638672)" opacity="0.357139" style="fill:rgb(255, 255, 255);transform:matrix(1, 0, 0, 1, 0, 204.222);opacity:0.357139;;animation:none"></path>
<path fill="#fff" d="M1469.5 -300 L1469.5 120.19484424754259 A15 15 0 0 1 1500.5 120.19484424754259 L1500.5 -300" transform="matrix(1,0,0,1,0,-25.702590942382812)" style="fill:rgb(255, 255, 255);transform:matrix(1, 0, 0, 1, 0, -25.7026);;animation:none"></path>
<path fill="#000" d="M1469.5 -55.88943133661033 L1469.5 -30 A15 15 0 0 0 1500.5 -30 L1500.5 -55.88943133661033 A15 15 0 0 0 1469.5 -55.88943133661033" transform="matrix(1,0,0,1,0,0)" opacity="0.156246" style="fill:rgb(0, 0, 0);transform:matrix(1, 0, 0, 1, 0, 0);opacity:0.156246;;animation:none"></path>
<path fill="#fff" d="M1499.5 -300 L1499.5 153.9921898044255 A15 15 0 0 0 1530.5 153.9921898044255 L1530.5 -300" transform="matrix(1,0,0,1,0,0.34192413091659546)" style="fill:rgb(255, 255, 255);transform:matrix(1, 0, 0, 1, 0, 0.341924);;animation:none"></path>
<path fill="#fff" d="M1499.5 94.121524531133 L1499.5 123.9921898044255 A15 15 0 0 0 1530.5 123.9921898044255 L1530.5 94.121524531133 A15 15 0 0 0 1499.5 94.121524531133" transform="matrix(1,0,0,1,0,185.5762481689453)" opacity="0.446427" style="fill:rgb(255, 255, 255);transform:matrix(1, 0, 0, 1, 0, 185.576);opacity:0.446427;;animation:none"></path>
<path fill="#fff" d="M1529.5 -300 L1529.5 118.72990105533526 A15 15 0 0 1 1560.5 118.72990105533526 L1560.5 -300" transform="matrix(1,0,0,1,0,-36.15096664428711)" style="fill:rgb(255, 255, 255);transform:matrix(1, 0, 0, 1, 0, -36.151);;animation:none"></path>
<path fill="#000" d="M1529.5 -63.245063496362135 L1529.5 -30 A15 15 0 0 0 1560.5 -30 L1560.5 -63.245063496362135 A15 15 0 0 0 1529.5 -63.245063496362135" transform="matrix(1,0,0,1,0,0)" opacity="1" style="fill:rgb(0, 0, 0);transform:matrix(1, 0, 0, 1, 0, 0);;animation:none"></path>
<path fill="#fff" d="M1559.5 -300 L1559.5 162.28014296363722 A15 15 0 0 0 1590.5 162.28014296363722 L1590.5 -300" transform="matrix(1,0,0,1,0,54.705810546875)" style="fill:rgb(255, 255, 255);transform:matrix(1, 0, 0, 1, 0, 54.7058);;animation:none"></path>
<path fill="#fff" d="M1559.5 109.1603537477223 L1559.5 132.28014296363722 A15 15 0 0 0 1590.5 132.28014296363722 L1590.5 109.1603537477223 A15 15 0 0 0 1559.5 109.1603537477223" transform="matrix(1,0,0,1,0,95.81669616699219)" opacity="0.982139" style="fill:rgb(255, 255, 255);transform:matrix(1, 0, 0, 1, 0, 95.8167);opacity:0.982139;;animation:none"></path>
<path fill="#fff" d="M1589.5 -300 L1589.5 142.2679452885138 A15 15 0 0 1 1620.5 142.2679452885138 L1620.5 -300" transform="matrix(1,0,0,1,0,-0.34392547607421875)" style="fill:rgb(255, 255, 255);transform:matrix(1, 0, 0, 1, 0, -0.343925);;animation:none"></path>
<path fill="#000" d="M1589.5 -50.863630139527764 L1589.5 -30 A15 15 0 0 0 1620.5 -30 L1620.5 -50.863630139527764 A15 15 0 0 0 1589.5 -50.863630139527764" transform="matrix(1,0,0,1,0,0)" opacity="0.0446411" style="fill:rgb(0, 0, 0);transform:matrix(1, 0, 0, 1, 0, 0);opacity:0.0446411;;animation:none"></path>
<path fill="#fff" d="M1619.5 -300 L1619.5 171.58106860748092 A15 15 0 0 0 1650.5 171.58106860748092 L1650.5 -300" transform="matrix(1,0,0,1,0,60.335166931152344)" style="fill:rgb(255, 255, 255);transform:matrix(1, 0, 0, 1, 0, 60.3352);;animation:none"></path>
<path fill="#fff" d="M1619.5 117.65712327919334 L1619.5 141.58106860748092 A15 15 0 0 0 1650.5 141.58106860748092 L1650.5 117.65712327919334 A15 15 0 0 0 1619.5 117.65712327919334" transform="matrix(1,0,0,1,0,155.78646850585938)" opacity="0.580353" style="fill:rgb(255, 255, 255);transform:matrix(1, 0, 0, 1, 0, 155.786);opacity:0.580353;;animation:none"></path>
<path fill="#fff" d="M1649.5 -300 L1649.5 110.9130672423739 A15 15 0 0 1 1680.5 110.9130672423739 L1680.5 -300" transform="matrix(1,0,0,1,0,-55.84927749633789)" style="fill:rgb(255, 255, 255);transform:matrix(1, 0, 0, 1, 0, -55.8493);;animation:none"></path>
<path fill="#000" d="M1649.5 -44.55376490829911 L1649.5 -30 A15 15 0 0 0 1680.5 -30 L1680.5 -44.55376490829911 A15 15 0 0 0 1649.5 -44.55376490829911" transform="matrix(1,0,0,1,0,0)" opacity="0.602678" style="fill:rgb(0, 0, 0);transform:matrix(1, 0, 0, 1, 0, 0);opacity:0.602678;;animation:none"></path>
<path fill="#fff" d="M1679.5 -300 L1679.5 158.42619484719594 A15 15 0 0 0 1710.5 158.42619484719594 L1710.5 -300" transform="matrix(1,0,0,1,0,28.974632263183594)" style="fill:rgb(255, 255, 255);transform:matrix(1, 0, 0, 1, 0, 28.9746);;animation:none"></path>
<path fill="#fff" d="M1679.5 110.5004382284028 L1679.5 128.42619484719594 A15 15 0 0 0 1710.5 128.42619484719594 L1710.5 110.5004382284028 A15 15 0 0 0 1679.5 110.5004382284028" transform="matrix(1,0,0,1,0,195.4066925048828)" opacity="0.178567" style="fill:rgb(255, 255, 255);transform:matrix(1, 0, 0, 1, 0, 195.407);opacity:0.178567;;animation:none"></path>
<path fill="#fff" d="M1709.5 -300 L1709.5 107.79595026562887 A15 15 0 0 1 1740.5 107.79595026562887 L1740.5 -300" transform="matrix(1,0,0,1,0,-0.04748604819178581)" style="fill:rgb(255, 255, 255);transform:matrix(1, 0, 0, 1, 0, -0.047486);;animation:none"></path>
<path fill="#000" d="M1709.5 -65.4119566999503 L1709.5 -30 A15 15 0 0 0 1740.5 -30 L1740.5 -65.4119566999503 A15 15 0 0 0 1709.5 -65.4119566999503" transform="matrix(1,0,0,1,0,0)" opacity="0.46875" style="fill:rgb(0, 0, 0);transform:matrix(1, 0, 0, 1, 0, 0);opacity:0.46875;;animation:none"></path>
<path fill="#fff" d="M1739.5 -300 L1739.5 132.07323548620056 A15 15 0 0 0 1770.5 132.07323548620056 L1770.5 -300" transform="matrix(1,0,0,1,0,38.11185836791992)" style="fill:rgb(255, 255, 255);transform:matrix(1, 0, 0, 1, 0, 38.1119);;animation:none"></path>
<path fill="#fff" d="M1739.5 70.9705817369842 L1739.5 102.07323548620056 A15 15 0 0 0 1770.5 102.07323548620056 L1770.5 70.9705817369842 A15 15 0 0 0 1739.5 70.9705817369842" transform="matrix(1,0,0,1,0,210.75894165039062)" opacity="0.401785" style="fill:rgb(255, 255, 255);transform:matrix(1, 0, 0, 1, 0, 210.759);opacity:0.401785;;animation:none"></path>
<path fill="#fff" d="M1769.5 -300 L1769.5 118.05486894454853 A15 15 0 0 1 1800.5 118.05486894454853 L1800.5 -300" transform="matrix(1,0,0,1,0,-20.97760581970215)" style="fill:rgb(255, 255, 255);transform:matrix(1, 0, 0, 1, 0, -20.9776);;animation:none"></path>
<path fill="#000" d="M1769.5 -42.97943594844196 L1769.5 -30 A15 15 0 0 0 1800.5 -30 L1800.5 -42.97943594844196 A15 15 0 0 0 1769.5 -42.97943594844196" transform="matrix(1,0,0,1,0,0)" opacity="1" style="fill:rgb(0, 0, 0);transform:matrix(1, 0, 0, 1, 0, 0);;animation:none"></path>
<path fill="#fff" d="M1799.5 -300 L1799.5 149.05298774940968 A15 15 0 0 0 1830.5 149.05298774940968 L1830.5 -300" transform="matrix(1,0,0,1,0,39.545494079589844)" style="fill:rgb(255, 255, 255);transform:matrix(1, 0, 0, 1, 0, 39.5455);;animation:none"></path>
<path fill="#fff" d="M1799.5 93.37570804241669 L1799.5 119.05298774940968 A15 15 0 0 0 1830.5 119.05298774940968 L1830.5 93.37570804241669 A15 15 0 0 0 1799.5 93.37570804241669" transform="matrix(1,0,0,1,0,123.05359649658203)" opacity="0.803567" style="fill:rgb(255, 255, 255);transform:matrix(1, 0, 0, 1, 0, 123.054);opacity:0.803567;;animation:none"></path>
<path fill="#fff" d="M1829.5 -300 L1829.5 122.3257515120802 A15 15 0 0 1 1860.5 122.3257515120802 L1860.5 -300" transform="matrix(1,0,0,1,0,-33.362998962402344)" style="fill:rgb(255, 255, 255);transform:matrix(1, 0, 0, 1, 0, -33.363);;animation:none"></path>
<path fill="#000" d="M1829.5 -41.858639829542156 L1829.5 -29.999999999999996 A15 15 0 0 0 1860.5 -29.999999999999996 L1860.5 -41.858639829542156 A15 15 0 0 0 1829.5 -41.858639829542156" transform="matrix(1,0,0,1,0,0)" opacity="0.401784" style="fill:rgb(0, 0, 0);transform:matrix(1, 0, 0, 1, 0, 0);opacity:0.401784;;animation:none"></path>
<path fill="#fff" d="M1859.5 -300 L1859.5 149.9044470149384 A15 15 0 0 0 1890.5 149.9044470149384 L1890.5 -300" transform="matrix(1,0,0,1,0,15.50091552734375)" style="fill:rgb(255, 255, 255);transform:matrix(1, 0, 0, 1, 0, 15.5009);;animation:none"></path>
<path fill="#fff" d="M1859.5 97.06280636285302 L1859.5 119.9044470149384 A15 15 0 0 0 1890.5 119.9044470149384 L1890.5 97.06280636285302 A15 15 0 0 0 1859.5 97.06280636285302" transform="matrix(1,0,0,1,0,139.7262420654297)" opacity="0.40178" style="fill:rgb(255, 255, 255);transform:matrix(1, 0, 0, 1, 0, 139.726);opacity:0.40178;;animation:none"></path>
<path fill="#fff" d="M1889.5 -300 L1889.5 131.1369108002421 A15 15 0 0 1 1920.5 131.1369108002421 L1920.5 -300" transform="matrix(1,0,0,1,0,-3.639251708984375)" style="fill:rgb(255, 255, 255);transform:matrix(1, 0, 0, 1, 0, -3.63925);;animation:none"></path>
<path fill="#000" d="M1889.5 -59.21536772132518 L1889.5 -30.000000000000004 A15 15 0 0 0 1920.5 -30.000000000000004 L1920.5 -59.21536772132518 A15 15 0 0 0 1889.5 -59.21536772132518" transform="matrix(1,0,0,1,0,0)" opacity="0.0669641" style="fill:rgb(0, 0, 0);transform:matrix(1, 0, 0, 1, 0, 0);opacity:0.0669641;;animation:none"></path></g></mask></defs>


<rect mask="url(#ldbk-photon-hmtduo7bze8-mask)" fill="url(#ldbk-photon-hmtduo7bze8-lg)" height="919" width="1920" y="0" x="0" style="fill:url('#ldbk-photon-hmtduo7bze8-lg');;animation:none"></rect>
<g></g></g><!-- [ldio] generated by https://loading.io --></svg>