<svg xmlns="http://www.w3.org/2000/svg" viewBox="0 0 1920 919" preserveAspectRatio="xMidYMid" width="1920" height="919" xmlns:xlink="http://www.w3.org/1999/xlink" style="shape-rendering:auto;display:block;background-position-x:0%;background-position-y:0%;background-size:auto;background-origin:padding-box;background-clip:border-box;background:scroll rgb(84, 51, 25) none  repeat;width:1920px;height:919px;;animation:none"><g><defs><linearGradient gradientUnits="userSpaceOnUse" y2="466.12" y1="0" x2="0" x1="0" id="ldbk-photon-hmtduo7bze8-lg"><stop offset="0" stop-color="#e59312"></stop>

    
<stop offset="1" stop-color="#f4b315"></stop></linearGradient>

  
<mask id="ldbk-photon-hmtduo7bze8-mask"><g><path fill="#fff" d="M-0.5 -300 L-0.5 482.7988992908556 A15 15 0 0 0 30.5 482.7988992908556 L30.5 -300" transform="matrix(1,0,0,1,0,0)" style="fill:rgb(255, 255, 255);transform:matrix(1, 0, 0, 1, 0, 0);;animation:none"></path>
<path fill="#fff" d="M-0.5 439.815629175185 L-0.5 452.7988992908556 A15 15 0 0 0 30.5 452.7988992908556 L30.5 439.815629175185 A15 15 0 0 0 -0.5 439.815629175185" transform="matrix(1,0,0,1,0,0)" opacity="1" style="fill:rgb(255, 255, 255);transform:matrix(1, 0, 0, 1, 0, 0);;animation:none"></path>
<path fill="#fff" d="M29.5 -300 L29.5 443.01887750566135 A15 15 0 0 1 60.5 443.01887750566135 L60.5 -300" transform="matrix(1,0,0,1,0,-4.9262213706970215)" style="fill:rgb(255, 255, 255);transform:matrix(1, 0, 0, 1, 0, -4.92622);;animation:none"></path>
<path fill="#000" d="M29.5 -55.46609256563198 L29.5 -30 A15 15 0 0 0 60.5 -30 L60.5 -55.46609256563198 A15 15 0 0 0 29.5 -55.46609256563198" transform="matrix(1,0,0,1,0,0)" opacity="1" style="fill:rgb(0, 0, 0);transform:matrix(1, 0, 0, 1, 0, 0);;animation:none"></path>
<path fill="#fff" d="M59.5 -300 L59.5 460.2938172926448 A15 15 0 0 0 90.5 460.2938172926448 L90.5 -300" transform="matrix(1,0,0,1,0,20.266660690307617)" style="fill:rgb(255, 255, 255);transform:matrix(1, 0, 0, 1, 0, 20.2667);;animation:none"></path>
<path fill="#fff" d="M59.5 408.66976468250954 L59.5 430.2938172926448 A15 15 0 0 0 90.5 430.2938172926448 L90.5 408.66976468250954 A15 15 0 0 0 59.5 408.66976468250954" transform="matrix(1,0,0,1,0,173.37643432617188)" opacity="1" style="fill:rgb(255, 255, 255);transform:matrix(1, 0, 0, 1, 0, 173.376);;animation:none"></path>
<path fill="#fff" d="M89.5 -300 L89.5 436.3433127833717 A15 15 0 0 1 120.5 436.3433127833717 L120.5 -300" transform="matrix(1,0,0,1,0,-46.73262023925781)" style="fill:rgb(255, 255, 255);transform:matrix(1, 0, 0, 1, 0, -46.7326);;animation:none"></path>
<path fill="#000" d="M89.5 -52.43047299095299 L89.5 -30 A15 15 0 0 0 120.5 -30 L120.5 -52.43047299095299 A15 15 0 0 0 89.5 -52.43047299095299" transform="matrix(1,0,0,1,0,0)" opacity="0.825893" style="fill:rgb(0, 0, 0);transform:matrix(1, 0, 0, 1, 0, 0);opacity:0.825893;;animation:none"></path>
<path fill="#fff" d="M119.5 -300 L119.5 529.7535059047976 A15 15 0 0 0 150.5 529.7535059047976 L150.5 -300" transform="matrix(1,0,0,1,0,7.302252769470215)" style="fill:rgb(255, 255, 255);transform:matrix(1, 0, 0, 1, 0, 7.30225);;animation:none"></path>
<path fill="#fff" d="M119.5 485.4375605589487 L119.5 499.7535059047977 A15 15 0 0 0 150.5 499.7535059047977 L150.5 485.4375605589487 A15 15 0 0 0 119.5 485.4375605589487" transform="matrix(1,0,0,1,0,372.41851806640625)" opacity="0.892857" style="fill:rgb(255, 255, 255);transform:matrix(1, 0, 0, 1, 0, 372.419);opacity:0.892857;;animation:none"></path>
<path fill="#fff" d="M149.5 -300 L149.5 447.7537827487583 A15 15 0 0 1 180.5 447.7537827487583 L180.5 -300" transform="matrix(1,0,0,1,0,-49.314334869384766)" style="fill:rgb(255, 255, 255);transform:matrix(1, 0, 0, 1, 0, -49.3143);;animation:none"></path>
<path fill="#000" d="M149.5 -41.949555207519765 L149.5 -30 A15 15 0 0 0 180.5 -30 L180.5 -41.949555207519765 A15 15 0 0 0 149.5 -41.949555207519765" transform="matrix(1,0,0,1,0,0)" opacity="0.424107" style="fill:rgb(0, 0, 0);transform:matrix(1, 0, 0, 1, 0, 0);opacity:0.424107;;animation:none"></path>
<path fill="#fff" d="M179.5 -300 L179.5 491.22460536067985 A15 15 0 0 0 210.5 491.22460536067985 L210.5 -300" transform="matrix(1,0,0,1,0,28.240461349487305)" style="fill:rgb(255, 255, 255);transform:matrix(1, 0, 0, 1, 0, 28.2405);;animation:none"></path>
<path fill="#fff" d="M179.5 434.3177185927189 L179.5 461.22460536067985 A15 15 0 0 0 210.5 461.22460536067985 L210.5 434.3177185927189 A15 15 0 0 0 179.5 434.3177185927189" transform="matrix(1,0,0,1,0,573.5689697265625)" opacity="0.625" style="fill:rgb(255, 255, 255);transform:matrix(1, 0, 0, 1, 0, 573.569);opacity:0.625;;animation:none"></path>
<path fill="#fff" d="M209.5 -300 L209.5 468.54272317466837 A15 15 0 0 1 240.5 468.54272317466837 L240.5 -300" transform="matrix(1,0,0,1,0,-0.0533294677734375)" style="fill:rgb(255, 255, 255);transform:matrix(1, 0, 0, 1, 0, -0.0533295);;animation:none"></path>
<path fill="#000" d="M209.5 -54.336672685070795 L209.5 -30 A15 15 0 0 0 240.5 -30 L240.5 -54.336672685070795 A15 15 0 0 0 209.5 -54.336672685070795" transform="matrix(1,0,0,1,0,0)" opacity="0.959821" style="fill:rgb(0, 0, 0);transform:matrix(1, 0, 0, 1, 0, 0);opacity:0.959821;;animation:none"></path>
<path fill="#fff" d="M239.5 -300 L239.5 525.4326108069556 A15 15 0 0 0 270.5 525.4326108069556 L270.5 -300" transform="matrix(1,0,0,1,0,3.1017661094665527)" style="fill:rgb(255, 255, 255);transform:matrix(1, 0, 0, 1, 0, 3.10177);;animation:none"></path>
<path fill="#fff" d="M239.5 480.65409873627425 L239.5 495.4326108069556 A15 15 0 0 0 270.5 495.4326108069556 L270.5 480.65409873627425 A15 15 0 0 0 239.5 480.65409873627425" transform="matrix(1,0,0,1,0,324.1880187988281)" opacity="0.892857" style="fill:rgb(255, 255, 255);transform:matrix(1, 0, 0, 1, 0, 324.188);opacity:0.892857;;animation:none"></path>
<path fill="#fff" d="M269.5 -300 L269.5 462.9943094878158 A15 15 0 0 1 300.5 462.9943094878158 L300.5 -300" transform="matrix(1,0,0,1,0,-16.979230880737305)" style="fill:rgb(255, 255, 255);transform:matrix(1, 0, 0, 1, 0, -16.9792);;animation:none"></path>
<path fill="#000" d="M269.5 -66.81498485495605 L269.5 -30 A15 15 0 0 0 300.5 -30 L300.5 -66.81498485495605 A15 15 0 0 0 269.5 -66.81498485495605" transform="matrix(1,0,0,1,0,0)" opacity="1" style="fill:rgb(0, 0, 0);transform:matrix(1, 0, 0, 1, 0, 0);;animation:none"></path>
<path fill="#fff" d="M299.5 -300 L299.5 532.5058493885276 A15 15 0 0 0 330.5 532.5058493885276 L330.5 -300" transform="matrix(1,0,0,1,0,25.677465438842773)" style="fill:rgb(255, 255, 255);transform:matrix(1, 0, 0, 1, 0, 25.6775);;animation:none"></path>
<path fill="#fff" d="M299.5 486.6635054420183 L299.5 502.5058493885276 A15 15 0 0 0 330.5 502.5058493885276 L330.5 486.6635054420183 A15 15 0 0 0 299.5 486.6635054420183" transform="matrix(1,0,0,1,0,687.6507568359375)" opacity="0.0892857" style="fill:rgb(255, 255, 255);transform:matrix(1, 0, 0, 1, 0, 687.651);opacity:0.0892857;;animation:none"></path>
<path fill="#fff" d="M329.5 -300 L329.5 472.0805060126206 A15 15 0 0 1 360.5 472.0805060126206 L360.5 -300" transform="matrix(1,0,0,1,0,-26.9194278717041)" style="fill:rgb(255, 255, 255);transform:matrix(1, 0, 0, 1, 0, -26.9194);;animation:none"></path>
<path fill="#000" d="M329.5 -56.03280854240509 L329.5 -29.999999999999996 A15 15 0 0 0 360.5 -29.999999999999996 L360.5 -56.03280854240509 A15 15 0 0 0 329.5 -56.03280854240509" transform="matrix(1,0,0,1,0,0)" opacity="0.647321" style="fill:rgb(0, 0, 0);transform:matrix(1, 0, 0, 1, 0, 0);opacity:0.647321;;animation:none"></path>
<path fill="#fff" d="M359.5 -300 L359.5 495.18711485836786 A15 15 0 0 0 390.5 495.18711485836786 L390.5 -300" transform="matrix(1,0,0,1,0,3.2352349758148193)" style="fill:rgb(255, 255, 255);transform:matrix(1, 0, 0, 1, 0, 3.23523);;animation:none"></path>
<path fill="#fff" d="M359.5 448.3812360005555 L359.5 465.18711485836786 A15 15 0 0 0 390.5 465.18711485836786 L390.5 448.3812360005555 A15 15 0 0 0 359.5 448.3812360005555" transform="matrix(1,0,0,1,0,506.00726318359375)" opacity="0.446428" style="fill:rgb(255, 255, 255);transform:matrix(1, 0, 0, 1, 0, 506.007);opacity:0.446428;;animation:none"></path>
<path fill="#fff" d="M389.5 -300 L389.5 459.5060362479444 A15 15 0 0 1 420.5 459.5060362479444 L420.5 -300" transform="matrix(1,0,0,1,0,-27.221179962158203)" style="fill:rgb(255, 255, 255);transform:matrix(1, 0, 0, 1, 0, -27.2212);;animation:none"></path>
<path fill="#000" d="M389.5 -66.52522956606758 L389.5 -30 A15 15 0 0 0 420.5 -30 L420.5 -66.52522956606758 A15 15 0 0 0 389.5 -66.52522956606758" transform="matrix(1,0,0,1,0,0)" opacity="1" style="fill:rgb(0, 0, 0);transform:matrix(1, 0, 0, 1, 0, 0);;animation:none"></path>
<path fill="#fff" d="M419.5 -300 L419.5 496.352486857022 A15 15 0 0 0 450.5 496.352486857022 L450.5 -300" transform="matrix(1,0,0,1,0,22.00705337524414)" style="fill:rgb(255, 255, 255);transform:matrix(1, 0, 0, 1, 0, 22.0071);;animation:none"></path>
<path fill="#fff" d="M419.5 432.25523573516637 L419.5 466.352486857022 A15 15 0 0 0 450.5 466.352486857022 L450.5 432.25523573516637 A15 15 0 0 0 419.5 432.25523573516637" transform="matrix(1,0,0,1,0,920.2897338867188)" opacity="0.0446426" style="fill:rgb(255, 255, 255);transform:matrix(1, 0, 0, 1, 0, 920.29);opacity:0.0446426;;animation:none"></path>
<path fill="#fff" d="M449.5 -300 L449.5 474.8246436798519 A15 15 0 0 1 480.5 474.8246436798519 L480.5 -300" transform="matrix(1,0,0,1,0,-33.651084899902344)" style="fill:rgb(255, 255, 255);transform:matrix(1, 0, 0, 1, 0, -33.6511);;animation:none"></path>
<path fill="#000" d="M449.5 -63.43268226905417 L449.5 -30 A15 15 0 0 0 480.5 -30 L480.5 -63.43268226905417 A15 15 0 0 0 449.5 -63.43268226905417" transform="matrix(1,0,0,1,0,0)" opacity="0.848214" style="fill:rgb(0, 0, 0);transform:matrix(1, 0, 0, 1, 0, 0);opacity:0.848214;;animation:none"></path>
<path fill="#fff" d="M479.5 -300 L479.5 533.8736591769288 A15 15 0 0 0 510.5 533.8736591769288 L510.5 -300" transform="matrix(1,0,0,1,0,13.551962852478027)" style="fill:rgb(255, 255, 255);transform:matrix(1, 0, 0, 1, 0, 13.552);;animation:none"></path>
<path fill="#fff" d="M479.5 466.1230219872738 L479.5 503.87365917692875 A15 15 0 0 0 510.5 503.87365917692875 L510.5 466.1230219872738 A15 15 0 0 0 479.5 466.1230219872738" transform="matrix(1,0,0,1,0,428.44097900390625)" opacity="0.714286" style="fill:rgb(255, 255, 255);transform:matrix(1, 0, 0, 1, 0, 428.441);opacity:0.714286;;animation:none"></path>
<path fill="#fff" d="M509.5 -300 L509.5 479.56454736790204 A15 15 0 0 1 540.5 479.56454736790204 L540.5 -300" transform="matrix(1,0,0,1,0,-31.85761833190918)" style="fill:rgb(255, 255, 255);transform:matrix(1, 0, 0, 1, 0, -31.8576);;animation:none"></path>
<path fill="#000" d="M509.5 -55.49434569195059 L509.5 -30 A15 15 0 0 0 540.5 -30 L540.5 -55.49434569195059 A15 15 0 0 0 509.5 -55.49434569195059" transform="matrix(1,0,0,1,0,0)" opacity="0.290179" style="fill:rgb(0, 0, 0);transform:matrix(1, 0, 0, 1, 0, 0);opacity:0.290179;;animation:none"></path>
<path fill="#fff" d="M539.5 -300 L539.5 506.02128716542103 A15 15 0 0 0 570.5 506.02128716542103 L570.5 -300" transform="matrix(1,0,0,1,0,6.414228439331055)" style="fill:rgb(255, 255, 255);transform:matrix(1, 0, 0, 1, 0, 6.41423);;animation:none"></path>
<path fill="#fff" d="M539.5 457.80589475059674 L539.5 476.02128716542103 A15 15 0 0 0 570.5 476.02128716542103 L570.5 457.80589475059674 A15 15 0 0 0 539.5 457.80589475059674" transform="matrix(1,0,0,1,0,697.333740234375)" opacity="0.223214" style="fill:rgb(255, 255, 255);transform:matrix(1, 0, 0, 1, 0, 697.334);opacity:0.223214;;animation:none"></path>
<path fill="#fff" d="M569.5 -300 L569.5 490.80810610659375 A15 15 0 0 1 600.5 490.80810610659375 L600.5 -300" transform="matrix(1,0,0,1,0,-2.9780502319335938)" style="fill:rgb(255, 255, 255);transform:matrix(1, 0, 0, 1, 0, -2.97805);;animation:none"></path>
<path fill="#000" d="M569.5 -66.93679557496932 L569.5 -29.999999999999993 A15 15 0 0 0 600.5 -29.999999999999993 L600.5 -66.93679557496932 A15 15 0 0 0 569.5 -66.93679557496932" transform="matrix(1,0,0,1,0,0)" opacity="0.3125" style="fill:rgb(0, 0, 0);transform:matrix(1, 0, 0, 1, 0, 0);opacity:0.3125;;animation:none"></path>
<path fill="#fff" d="M599.5 -300 L599.5 515.4547587963208 A15 15 0 0 0 630.5 515.4547587963208 L630.5 -300" transform="matrix(1,0,0,1,0,3.0855445861816406)" style="fill:rgb(255, 255, 255);transform:matrix(1, 0, 0, 1, 0, 3.08554);;animation:none"></path>
<path fill="#fff" d="M599.5 445.670000420283 L599.5 485.4547587963208 A15 15 0 0 0 630.5 485.4547587963208 L630.5 445.670000420283 A15 15 0 0 0 599.5 445.670000420283" transform="matrix(1,0,0,1,0,799.6567993164062)" opacity="0.0892857" style="fill:rgb(255, 255, 255);transform:matrix(1, 0, 0, 1, 0, 799.657);opacity:0.0892857;;animation:none"></path>
<path fill="#fff" d="M629.5 -300 L629.5 468.6408250961801 A15 15 0 0 1 660.5 468.6408250961801 L660.5 -300" transform="matrix(1,0,0,1,0,-0.24821853637695312)" style="fill:rgb(255, 255, 255);transform:matrix(1, 0, 0, 1, 0, -0.248219);;animation:none"></path>
<path fill="#000" d="M629.5 -59.36330962565489 L629.5 -30 A15 15 0 0 0 660.5 -30 L660.5 -59.36330962565489 A15 15 0 0 0 629.5 -59.36330962565489" transform="matrix(1,0,0,1,0,0)" opacity="0.0223214" style="fill:rgb(0, 0, 0);transform:matrix(1, 0, 0, 1, 0, 0);opacity:0.0223214;;animation:none"></path>
<path fill="#fff" d="M659.5 -300 L659.5 533.5674754883307 A15 15 0 0 0 690.5 533.5674754883307 L690.5 -300" transform="matrix(1,0,0,1,0,0.15764868259429932)" style="fill:rgb(255, 255, 255);transform:matrix(1, 0, 0, 1, 0, 0.157649);;animation:none"></path>
<path fill="#fff" d="M659.5 469.01901301071644 L659.5 503.56747548833073 A15 15 0 0 0 690.5 503.56747548833073 L690.5 469.01901301071644 A15 15 0 0 0 659.5 469.01901301071644" transform="matrix(1,0,0,1,0,30.204465866088867)" opacity="1" style="fill:rgb(255, 255, 255);transform:matrix(1, 0, 0, 1, 0, 30.2045);;animation:none"></path>
<path fill="#fff" d="M689.5 -300 L689.5 459.7322342405946 A15 15 0 0 1 720.5 459.7322342405946 L720.5 -300" transform="matrix(1,0,0,1,0,-17.774690628051758)" style="fill:rgb(255, 255, 255);transform:matrix(1, 0, 0, 1, 0, -17.7747);;animation:none"></path>
<path fill="#000" d="M689.5 -47.40543348071084 L689.5 -30.000000000000004 A15 15 0 0 0 720.5 -30.000000000000004 L720.5 -47.40543348071084 A15 15 0 0 0 689.5 -47.40543348071084" transform="matrix(1,0,0,1,0,0)" opacity="1" style="fill:rgb(0, 0, 0);transform:matrix(1, 0, 0, 1, 0, 0);;animation:none"></path>
<path fill="#fff" d="M719.5 -300 L719.5 483.93979849496185 A15 15 0 0 0 750.5 483.93979849496185 L750.5 -300" transform="matrix(1,0,0,1,0,27.047534942626953)" style="fill:rgb(255, 255, 255);transform:matrix(1, 0, 0, 1, 0, 27.0475);;animation:none"></path>
<path fill="#fff" d="M719.5 414.25062166323033 L719.5 453.93979849496185 A15 15 0 0 0 750.5 453.93979849496185 L750.5 414.25062166323033 A15 15 0 0 0 719.5 414.25062166323033" transform="matrix(1,0,0,1,0,189.44573974609375)" opacity="1" style="fill:rgb(255, 255, 255);transform:matrix(1, 0, 0, 1, 0, 189.446);;animation:none"></path>
<path fill="#fff" d="M749.5 -300 L749.5 471.90324746411125 A15 15 0 0 1 780.5 471.90324746411125 L780.5 -300" transform="matrix(1,0,0,1,0,-26.48857307434082)" style="fill:rgb(255, 255, 255);transform:matrix(1, 0, 0, 1, 0, -26.4886);;animation:none"></path>
<path fill="#000" d="M749.5 -43.09228966406548 L749.5 -30 A15 15 0 0 0 780.5 -30 L780.5 -43.09228966406548 A15 15 0 0 0 749.5 -43.09228966406548" transform="matrix(1,0,0,1,0,0)" opacity="0.9375" style="fill:rgb(0, 0, 0);transform:matrix(1, 0, 0, 1, 0, 0);opacity:0.9375;;animation:none"></path>
<path fill="#fff" d="M779.5 -300 L779.5 519.6086225936846 A15 15 0 0 0 810.5 519.6086225936846 L810.5 -300" transform="matrix(1,0,0,1,0,37.628604888916016)" style="fill:rgb(255, 255, 255);transform:matrix(1, 0, 0, 1, 0, 37.6286);;animation:none"></path>
<path fill="#fff" d="M779.5 464.31132703301125 L779.5 489.6086225936846 A15 15 0 0 0 810.5 489.6086225936846 L810.5 464.31132703301125 A15 15 0 0 0 779.5 464.31132703301125" transform="matrix(1,0,0,1,0,496.2915344238281)" opacity="0.491071" style="fill:rgb(255, 255, 255);transform:matrix(1, 0, 0, 1, 0, 496.292);opacity:0.491071;;animation:none"></path>
<path fill="#fff" d="M809.5 -300 L809.5 486.43149236040927 A15 15 0 0 1 840.5 486.43149236040927 L840.5 -300" transform="matrix(1,0,0,1,0,-11.94582748413086)" style="fill:rgb(255, 255, 255);transform:matrix(1, 0, 0, 1, 0, -11.9458);;animation:none"></path>
<path fill="#000" d="M809.5 -44.68952367324885 L809.5 -30 A15 15 0 0 0 840.5 -30 L840.5 -44.68952367324885 A15 15 0 0 0 809.5 -44.68952367324885" transform="matrix(1,0,0,1,0,0)" opacity="1" style="fill:rgb(0, 0, 0);transform:matrix(1, 0, 0, 1, 0, 0);;animation:none"></path>
<path fill="#fff" d="M839.5 -300 L839.5 507.9263709099329 A15 15 0 0 0 870.5 507.9263709099329 L870.5 -300" transform="matrix(1,0,0,1,0,0.6220016479492188)" style="fill:rgb(255, 255, 255);transform:matrix(1, 0, 0, 1, 0, 0.622002);;animation:none"></path>
<path fill="#fff" d="M839.5 446.4196540393378 L839.5 477.9263709099329 A15 15 0 0 0 870.5 477.9263709099329 L870.5 446.4196540393378 A15 15 0 0 0 839.5 446.4196540393378" transform="matrix(1,0,0,1,0,305.79888916015625)" opacity="0.982143" style="fill:rgb(255, 255, 255);transform:matrix(1, 0, 0, 1, 0, 305.799);opacity:0.982143;;animation:none"></path>
<path fill="#fff" d="M869.5 -300 L869.5 470.2147830995701 A15 15 0 0 1 900.5 470.2147830995701 L900.5 -300" transform="matrix(1,0,0,1,0,-20.324264526367188)" style="fill:rgb(255, 255, 255);transform:matrix(1, 0, 0, 1, 0, -20.3243);;animation:none"></path>
<path fill="#000" d="M869.5 -66.32354565052687 L869.5 -30 A15 15 0 0 0 900.5 -30 L900.5 -66.32354565052687 A15 15 0 0 0 869.5 -66.32354565052687" transform="matrix(1,0,0,1,0,0)" opacity="0.401786" style="fill:rgb(0, 0, 0);transform:matrix(1, 0, 0, 1, 0, 0);opacity:0.401786;;animation:none"></path>
<path fill="#fff" d="M899.5 -300 L899.5 515.4674977778935 A15 15 0 0 0 930.5 515.4674977778935 L930.5 -300" transform="matrix(1,0,0,1,0,10.510635375976562)" style="fill:rgb(255, 255, 255);transform:matrix(1, 0, 0, 1, 0, 10.5106);;animation:none"></path>
<path fill="#fff" d="M899.5 467.422919359395 L899.5 485.4674977778935 A15 15 0 0 0 930.5 485.4674977778935 L930.5 467.422919359395 A15 15 0 0 0 899.5 467.422919359395" transform="matrix(1,0,0,1,0,616.0858154296875)" opacity="0.267857" style="fill:rgb(255, 255, 255);transform:matrix(1, 0, 0, 1, 0, 616.086);opacity:0.267857;;animation:none"></path>
<path fill="#fff" d="M929.5 -300 L929.5 452.8727067917972 A15 15 0 0 1 960.5 452.8727067917972 L960.5 -300" transform="matrix(1,0,0,1,0,-33.005706787109375)" style="fill:rgb(255, 255, 255);transform:matrix(1, 0, 0, 1, 0, -33.0057);;animation:none"></path>
<path fill="#000" d="M929.5 -43.71005062452676 L929.5 -30.000000000000004 A15 15 0 0 0 960.5 -30.000000000000004 L960.5 -43.71005062452676 A15 15 0 0 0 929.5 -43.71005062452676" transform="matrix(1,0,0,1,0,0)" opacity="0.78125" style="fill:rgb(0, 0, 0);transform:matrix(1, 0, 0, 1, 0, 0);opacity:0.78125;;animation:none"></path>
<path fill="#fff" d="M959.5 -300 L959.5 453.47566020971203 A15 15 0 0 0 990.5 453.47566020971203 L990.5 -300" transform="matrix(1,0,0,1,0,45.797119140625)" style="fill:rgb(255, 255, 255);transform:matrix(1, 0, 0, 1, 0, 45.7971);;animation:none"></path>
<path fill="#fff" d="M959.5 405.3594979552561 L959.5 423.47566020971203 A15 15 0 0 0 990.5 423.47566020971203 L990.5 405.3594979552561 A15 15 0 0 0 959.5 405.3594979552561" transform="matrix(1,0,0,1,0,0)" opacity="1" style="fill:rgb(255, 255, 255);transform:matrix(1, 0, 0, 1, 0, 0);;animation:none"></path>
<path fill="#fff" d="M989.5 -300 L989.5 432.5976224023851 A15 15 0 0 1 1020.5 432.5976224023851 L1020.5 -300" transform="matrix(1,0,0,1,0,-2.6963632106781006)" style="fill:rgb(255, 255, 255);transform:matrix(1, 0, 0, 1, 0, -2.69636);;animation:none"></path>
<path fill="#000" d="M989.5 -69.33798298040978 L989.5 -30 A15 15 0 0 0 1020.5 -30 L1020.5 -69.33798298040978 A15 15 0 0 0 989.5 -69.33798298040978" transform="matrix(1,0,0,1,0,0)" opacity="1" style="fill:rgb(0, 0, 0);transform:matrix(1, 0, 0, 1, 0, 0);;animation:none"></path>
<path fill="#fff" d="M1019.5 -300 L1019.5 503.57895261225605 A15 15 0 0 0 1050.5 503.57895261225605 L1050.5 -300" transform="matrix(1,0,0,1,0,8.157092094421387)" style="fill:rgb(255, 255, 255);transform:matrix(1, 0, 0, 1, 0, 8.15709);;animation:none"></path>
<path fill="#fff" d="M1019.5 440.0795245718475 L1019.5 473.57895261225605 A15 15 0 0 0 1050.5 473.57895261225605 L1050.5 440.0795245718475 A15 15 0 0 0 1019.5 440.0795245718475" transform="matrix(1,0,0,1,0,549.6527099609375)" opacity="0.312499" style="fill:rgb(255, 255, 255);transform:matrix(1, 0, 0, 1, 0, 549.653);opacity:0.312499;;animation:none"></path>
<path fill="#fff" d="M1049.5 -300 L1049.5 448.8582774288941 A15 15 0 0 1 1080.5 448.8582774288941 L1080.5 -300" transform="matrix(1,0,0,1,0,-34.75062561035156)" style="fill:rgb(255, 255, 255);transform:matrix(1, 0, 0, 1, 0, -34.7506);;animation:none"></path>
<path fill="#000" d="M1049.5 -47.65465676755838 L1049.5 -29.999999999999996 A15 15 0 0 0 1080.5 -29.999999999999996 L1080.5 -47.65465676755838 A15 15 0 0 0 1049.5 -47.65465676755838" transform="matrix(1,0,0,1,0,0)" opacity="0.513393" style="fill:rgb(0, 0, 0);transform:matrix(1, 0, 0, 1, 0, 0);opacity:0.513393;;animation:none"></path>
<path fill="#fff" d="M1079.5 -300 L1079.5 462.1621376527316 A15 15 0 0 0 1110.5 462.1621376527316 L1110.5 -300" transform="matrix(1,0,0,1,0,0.7786358594894409)" style="fill:rgb(255, 255, 255);transform:matrix(1, 0, 0, 1, 0, 0.778636);;animation:none"></path>
<path fill="#fff" d="M1079.5 421.8527918564525 L1079.5 432.1621376527316 A15 15 0 0 0 1110.5 432.1621376527316 L1110.5 421.8527918564525 A15 15 0 0 0 1079.5 421.8527918564525" transform="matrix(1,0,0,1,0,59.564369201660156)" opacity="1" style="fill:rgb(255, 255, 255);transform:matrix(1, 0, 0, 1, 0, 59.5644);;animation:none"></path>
<path fill="#fff" d="M1109.5 -300 L1109.5 436.8638493195102 A15 15 0 0 1 1140.5 436.8638493195102 L1140.5 -300" transform="matrix(1,0,0,1,0,-23.29277801513672)" style="fill:rgb(255, 255, 255);transform:matrix(1, 0, 0, 1, 0, -23.2928);;animation:none"></path>
<path fill="#000" d="M1109.5 -68.63396671900664 L1109.5 -30 A15 15 0 0 0 1140.5 -30 L1140.5 -68.63396671900664 A15 15 0 0 0 1109.5 -68.63396671900664" transform="matrix(1,0,0,1,0,0)" opacity="0.758929" style="fill:rgb(0, 0, 0);transform:matrix(1, 0, 0, 1, 0, 0);opacity:0.758929;;animation:none"></path>
<path fill="#fff" d="M1139.5 -300 L1139.5 440.8280344040385 A15 15 0 0 0 1170.5 440.8280344040385 L1170.5 -300" transform="matrix(1,0,0,1,0,14.274616241455078)" style="fill:rgb(255, 255, 255);transform:matrix(1, 0, 0, 1, 0, 14.2746);;animation:none"></path>
<path fill="#fff" d="M1139.5 376.36142577866474 L1139.5 410.8280344040385 A15 15 0 0 0 1170.5 410.8280344040385 L1170.5 376.36142577866474 A15 15 0 0 0 1139.5 376.36142577866474" transform="matrix(1,0,0,1,0,524.5131225585938)" opacity="0.3125" style="fill:rgb(255, 255, 255);transform:matrix(1, 0, 0, 1, 0, 524.513);opacity:0.3125;;animation:none"></path>
<path fill="#fff" d="M1169.5 -300 L1169.5 432.8761384770078 A15 15 0 0 1 1200.5 432.8761384770078 L1200.5 -300" transform="matrix(1,0,0,1,0,-40.34538269042969)" style="fill:rgb(255, 255, 255);transform:matrix(1, 0, 0, 1, 0, -40.3454);;animation:none"></path>
<path fill="#000" d="M1169.5 -44.70514303927358 L1169.5 -30 A15 15 0 0 0 1200.5 -30 L1200.5 -44.70514303927358 A15 15 0 0 0 1169.5 -44.70514303927358" transform="matrix(1,0,0,1,0,0)" opacity="0.736606" style="fill:rgb(0, 0, 0);transform:matrix(1, 0, 0, 1, 0, 0);opacity:0.736606;;animation:none"></path>
<path fill="#fff" d="M1199.5 -300 L1199.5 496.5947441305187 A15 15 0 0 0 1230.5 496.5947441305187 L1230.5 -300" transform="matrix(1,0,0,1,0,41.90980529785156)" style="fill:rgb(255, 255, 255);transform:matrix(1, 0, 0, 1, 0, 41.9098);;animation:none"></path>
<path fill="#fff" d="M1199.5 426.9748193403105 L1199.5 466.5947441305187 A15 15 0 0 0 1230.5 466.5947441305187 L1230.5 426.9748193403105 A15 15 0 0 0 1199.5 426.9748193403105" transform="matrix(1,0,0,1,0,465.1649169921875)" opacity="0.535714" style="fill:rgb(255, 255, 255);transform:matrix(1, 0, 0, 1, 0, 465.165);opacity:0.535714;;animation:none"></path>
<path fill="#fff" d="M1229.5 -300 L1229.5 427.25025685746306 A15 15 0 0 1 1260.5 427.25025685746306 L1260.5 -300" transform="matrix(1,0,0,1,0,-1.2529296875)" style="fill:rgb(255, 255, 255);transform:matrix(1, 0, 0, 1, 0, -1.25293);;animation:none"></path>
<path fill="#000" d="M1229.5 -42.53437384316748 L1229.5 -30 A15 15 0 0 0 1260.5 -30 L1260.5 -42.53437384316748 A15 15 0 0 0 1229.5 -42.53437384316748" transform="matrix(1,0,0,1,0,0)" opacity="0.223214" style="fill:rgb(0, 0, 0);transform:matrix(1, 0, 0, 1, 0, 0);opacity:0.223214;;animation:none"></path>
<path fill="#fff" d="M1259.5 -300 L1259.5 477.85333584487 A15 15 0 0 0 1290.5 477.85333584487 L1290.5 -300" transform="matrix(1,0,0,1,0,0.19337081909179688)" style="fill:rgb(255, 255, 255);transform:matrix(1, 0, 0, 1, 0, 0.193371);;animation:none"></path>
<path fill="#fff" d="M1259.5 413.4089570648298 L1259.5 447.85333584487 A15 15 0 0 0 1290.5 447.85333584487 L1290.5 413.4089570648298 A15 15 0 0 0 1259.5 413.4089570648298" transform="matrix(1,0,0,1,0,804.9622802734375)" opacity="0.0892857" style="fill:rgb(255, 255, 255);transform:matrix(1, 0, 0, 1, 0, 804.962);opacity:0.0892857;;animation:none"></path>
<path fill="#fff" d="M1289.5 -300 L1289.5 440.24323017861764 A15 15 0 0 1 1320.5 440.24323017861764 L1320.5 -300" transform="matrix(1,0,0,1,0,-0.17019283771514893)" style="fill:rgb(255, 255, 255);transform:matrix(1, 0, 0, 1, 0, -0.170193);;animation:none"></path>
<path fill="#000" d="M1289.5 -60.17034070659942 L1289.5 -30 A15 15 0 0 0 1320.5 -30 L1320.5 -60.17034070659942 A15 15 0 0 0 1289.5 -60.17034070659942" transform="matrix(1,0,0,1,0,0)" opacity="1" style="fill:rgb(0, 0, 0);transform:matrix(1, 0, 0, 1, 0, 0);;animation:none"></path>
<path fill="#fff" d="M1319.5 -300 L1319.5 462.5131260840892 A15 15 0 0 0 1350.5 462.5131260840892 L1350.5 -300" transform="matrix(1,0,0,1,0,3.1923725605010986)" style="fill:rgb(255, 255, 255);transform:matrix(1, 0, 0, 1, 0, 3.19237);;animation:none"></path>
<path fill="#fff" d="M1319.5 419.68083358504066 L1319.5 432.5131260840892 A15 15 0 0 0 1350.5 432.5131260840892 L1350.5 419.68083358504066 A15 15 0 0 0 1319.5 419.68083358504066" transform="matrix(1,0,0,1,0,50.88562774658203)" opacity="1" style="fill:rgb(255, 255, 255);transform:matrix(1, 0, 0, 1, 0, 50.8856);;animation:none"></path>
<path fill="#fff" d="M1349.5 -300 L1349.5 447.8204122836498 A15 15 0 0 1 1380.5 447.8204122836498 L1380.5 -300" transform="matrix(1,0,0,1,0,-2.703035831451416)" style="fill:rgb(255, 255, 255);transform:matrix(1, 0, 0, 1, 0, -2.70304);;animation:none"></path>
<path fill="#000" d="M1349.5 -69.96974118277015 L1349.5 -30 A15 15 0 0 0 1380.5 -30 L1380.5 -69.96974118277015 A15 15 0 0 0 1349.5 -69.96974118277015" transform="matrix(1,0,0,1,0,0)" opacity="1" style="fill:rgb(0, 0, 0);transform:matrix(1, 0, 0, 1, 0, 0);;animation:none"></path>
<path fill="#fff" d="M1379.5 -300 L1379.5 462.1403505827616 A15 15 0 0 0 1410.5 462.1403505827616 L1410.5 -300" transform="matrix(1,0,0,1,0,30.535959243774414)" style="fill:rgb(255, 255, 255);transform:matrix(1, 0, 0, 1, 0, 30.536);;animation:none"></path>
<path fill="#fff" d="M1379.5 393.7347096915124 L1379.5 432.1403505827616 A15 15 0 0 0 1410.5 432.1403505827616 L1410.5 393.7347096915124 A15 15 0 0 0 1379.5 393.7347096915124" transform="matrix(1,0,0,1,0,414.9150695800781)" opacity="0.758928" style="fill:rgb(255, 255, 255);transform:matrix(1, 0, 0, 1, 0, 414.915);opacity:0.758928;;animation:none"></path>
<path fill="#fff" d="M1409.5 -300 L1409.5 447.89681537720907 A15 15 0 0 1 1440.5 447.89681537720907 L1440.5 -300" transform="matrix(1,0,0,1,0,-34.133358001708984)" style="fill:rgb(255, 255, 255);transform:matrix(1, 0, 0, 1, 0, -34.1334);;animation:none"></path>
<path fill="#000" d="M1409.5 -49.9794958490009 L1409.5 -30 A15 15 0 0 0 1440.5 -30 L1440.5 -49.9794958490009 A15 15 0 0 0 1409.5 -49.9794958490009" transform="matrix(1,0,0,1,0,0)" opacity="0.848214" style="fill:rgb(0, 0, 0);transform:matrix(1, 0, 0, 1, 0, 0);opacity:0.848214;;animation:none"></path>
<path fill="#fff" d="M1439.5 -300 L1439.5 484.08637525268756 A15 15 0 0 0 1470.5 484.08637525268756 L1470.5 -300" transform="matrix(1,0,0,1,0,15.752363204956055)" style="fill:rgb(255, 255, 255);transform:matrix(1, 0, 0, 1, 0, 15.7524);;animation:none"></path>
<path fill="#fff" d="M1439.5 434.41801361716574 L1439.5 454.08637525268756 A15 15 0 0 0 1470.5 454.08637525268756 L1470.5 434.41801361716574 A15 15 0 0 0 1439.5 434.41801361716574" transform="matrix(1,0,0,1,0,700.1870727539062)" opacity="0.357142" style="fill:rgb(255, 255, 255);transform:matrix(1, 0, 0, 1, 0, 700.187);opacity:0.357142;;animation:none"></path>
<path fill="#fff" d="M1469.5 -300 L1469.5 432.65484424754254 A15 15 0 0 1 1500.5 432.65484424754254 L1500.5 -300" transform="matrix(1,0,0,1,0,-19.47164535522461)" style="fill:rgb(255, 255, 255);transform:matrix(1, 0, 0, 1, 0, -19.4716);;animation:none"></path>
<path fill="#000" d="M1469.5 -55.88943133661033 L1469.5 -30 A15 15 0 0 0 1500.5 -30 L1500.5 -55.88943133661033 A15 15 0 0 0 1469.5 -55.88943133661033" transform="matrix(1,0,0,1,0,0)" opacity="0.156249" style="fill:rgb(0, 0, 0);transform:matrix(1, 0, 0, 1, 0, 0);opacity:0.156249;;animation:none"></path>
<path fill="#fff" d="M1499.5 -300 L1499.5 466.4521898044255 A15 15 0 0 0 1530.5 466.4521898044255 L1530.5 -300" transform="matrix(1,0,0,1,0,0.25899332761764526)" style="fill:rgb(255, 255, 255);transform:matrix(1, 0, 0, 1, 0, 0.258993);;animation:none"></path>
<path fill="#fff" d="M1499.5 406.58152453113297 L1499.5 436.4521898044255 A15 15 0 0 0 1530.5 436.4521898044255 L1530.5 406.58152453113297 A15 15 0 0 0 1499.5 406.58152453113297" transform="matrix(1,0,0,1,0,636.2603149414062)" opacity="0.446429" style="fill:rgb(255, 255, 255);transform:matrix(1, 0, 0, 1, 0, 636.26);opacity:0.446429;;animation:none"></path>
<path fill="#fff" d="M1529.5 -300 L1529.5 431.1899010553352 A15 15 0 0 1 1560.5 431.1899010553352 L1560.5 -300" transform="matrix(1,0,0,1,0,-27.387094497680664)" style="fill:rgb(255, 255, 255);transform:matrix(1, 0, 0, 1, 0, -27.3871);;animation:none"></path>
<path fill="#000" d="M1529.5 -63.245063496362135 L1529.5 -30 A15 15 0 0 0 1560.5 -30 L1560.5 -63.245063496362135 A15 15 0 0 0 1529.5 -63.245063496362135" transform="matrix(1,0,0,1,0,0)" opacity="1" style="fill:rgb(0, 0, 0);transform:matrix(1, 0, 0, 1, 0, 0);;animation:none"></path>
<path fill="#fff" d="M1559.5 -300 L1559.5 474.74014296363725 A15 15 0 0 0 1590.5 474.74014296363725 L1590.5 -300" transform="matrix(1,0,0,1,0,41.443790435791016)" style="fill:rgb(255, 255, 255);transform:matrix(1, 0, 0, 1, 0, 41.4438);;animation:none"></path>
<path fill="#fff" d="M1559.5 421.62035374772233 L1559.5 444.74014296363725 A15 15 0 0 0 1590.5 444.74014296363725 L1590.5 421.62035374772233 A15 15 0 0 0 1559.5 421.62035374772233" transform="matrix(1,0,0,1,0,328.51202392578125)" opacity="0.982142" style="fill:rgb(255, 255, 255);transform:matrix(1, 0, 0, 1, 0, 328.512);opacity:0.982142;;animation:none"></path>
<path fill="#fff" d="M1589.5 -300 L1589.5 454.7279452885138 A15 15 0 0 1 1620.5 454.7279452885138 L1620.5 -300" transform="matrix(1,0,0,1,0,-0.2605743408203125)" style="fill:rgb(255, 255, 255);transform:matrix(1, 0, 0, 1, 0, -0.260574);;animation:none"></path>
<path fill="#000" d="M1589.5 -50.863630139527764 L1589.5 -30 A15 15 0 0 0 1620.5 -30 L1620.5 -50.863630139527764 A15 15 0 0 0 1589.5 -50.863630139527764" transform="matrix(1,0,0,1,0,0)" opacity="0.0446429" style="fill:rgb(0, 0, 0);transform:matrix(1, 0, 0, 1, 0, 0);opacity:0.0446429;;animation:none"></path>
<path fill="#fff" d="M1619.5 -300 L1619.5 484.0410686074809 A15 15 0 0 0 1650.5 484.0410686074809 L1650.5 -300" transform="matrix(1,0,0,1,0,45.70860290527344)" style="fill:rgb(255, 255, 255);transform:matrix(1, 0, 0, 1, 0, 45.7086);;animation:none"></path>
<path fill="#fff" d="M1619.5 430.1171232791933 L1619.5 454.0410686074809 A15 15 0 0 0 1650.5 454.0410686074809 L1650.5 430.1171232791933 A15 15 0 0 0 1619.5 430.1171232791933" transform="matrix(1,0,0,1,0,534.123046875)" opacity="0.580356" style="fill:rgb(255, 255, 255);transform:matrix(1, 0, 0, 1, 0, 534.123);opacity:0.580356;;animation:none"></path>
<path fill="#fff" d="M1649.5 -300 L1649.5 423.37306724237385 A15 15 0 0 1 1680.5 423.37306724237385 L1680.5 -300" transform="matrix(1,0,0,1,0,-42.31006622314453)" style="fill:rgb(255, 255, 255);transform:matrix(1, 0, 0, 1, 0, -42.3101);;animation:none"></path>
<path fill="#000" d="M1649.5 -44.55376490829911 L1649.5 -30 A15 15 0 0 0 1680.5 -30 L1680.5 -44.55376490829911 A15 15 0 0 0 1649.5 -44.55376490829911" transform="matrix(1,0,0,1,0,0)" opacity="0.602679" style="fill:rgb(0, 0, 0);transform:matrix(1, 0, 0, 1, 0, 0);opacity:0.602679;;animation:none"></path>
<path fill="#fff" d="M1679.5 -300 L1679.5 470.8861948471959 A15 15 0 0 0 1710.5 470.8861948471959 L1710.5 -300" transform="matrix(1,0,0,1,0,21.950246810913086)" style="fill:rgb(255, 255, 255);transform:matrix(1, 0, 0, 1, 0, 21.9502);;animation:none"></path>
<path fill="#fff" d="M1679.5 422.9604382284028 L1679.5 440.8861948471959 A15 15 0 0 0 1710.5 440.8861948471959 L1710.5 422.9604382284028 A15 15 0 0 0 1679.5 422.9604382284028" transform="matrix(1,0,0,1,0,669.9637451171875)" opacity="0.17857" style="fill:rgb(255, 255, 255);transform:matrix(1, 0, 0, 1, 0, 669.964);opacity:0.17857;;animation:none"></path>
<path fill="#fff" d="M1709.5 -300 L1709.5 420.2559502656288 A15 15 0 0 1 1740.5 420.2559502656288 L1740.5 -300" transform="matrix(1,0,0,1,0,-0.03596331924200058)" style="fill:rgb(255, 255, 255);transform:matrix(1, 0, 0, 1, 0, -0.0359633);;animation:none"></path>
<path fill="#000" d="M1709.5 -65.4119566999503 L1709.5 -30 A15 15 0 0 0 1740.5 -30 L1740.5 -65.4119566999503 A15 15 0 0 0 1709.5 -65.4119566999503" transform="matrix(1,0,0,1,0,0)" opacity="0.46875" style="fill:rgb(0, 0, 0);transform:matrix(1, 0, 0, 1, 0, 0);opacity:0.46875;;animation:none"></path>
<path fill="#fff" d="M1739.5 -300 L1739.5 444.5332354862005 A15 15 0 0 0 1770.5 444.5332354862005 L1770.5 -300" transform="matrix(1,0,0,1,0,28.872650146484375)" style="fill:rgb(255, 255, 255);transform:matrix(1, 0, 0, 1, 0, 28.8727);;animation:none"></path>
<path fill="#fff" d="M1739.5 383.43058173698415 L1739.5 414.5332354862005 A15 15 0 0 0 1770.5 414.5332354862005 L1770.5 383.43058173698415 A15 15 0 0 0 1739.5 383.43058173698415" transform="matrix(1,0,0,1,0,722.6019897460938)" opacity="0.401786" style="fill:rgb(255, 255, 255);transform:matrix(1, 0, 0, 1, 0, 722.602);opacity:0.401786;;animation:none"></path>
<path fill="#fff" d="M1769.5 -300 L1769.5 430.51486894454854 A15 15 0 0 1 1800.5 430.51486894454854 L1800.5 -300" transform="matrix(1,0,0,1,0,-15.892158508300781)" style="fill:rgb(255, 255, 255);transform:matrix(1, 0, 0, 1, 0, -15.8922);;animation:none"></path>
<path fill="#000" d="M1769.5 -42.97943594844196 L1769.5 -30 A15 15 0 0 0 1800.5 -30 L1800.5 -42.97943594844196 A15 15 0 0 0 1769.5 -42.97943594844196" transform="matrix(1,0,0,1,0,0)" opacity="1" style="fill:rgb(0, 0, 0);transform:matrix(1, 0, 0, 1, 0, 0);;animation:none"></path>
<path fill="#fff" d="M1799.5 -300 L1799.5 461.51298774940966 A15 15 0 0 0 1830.5 461.51298774940966 L1830.5 -300" transform="matrix(1,0,0,1,0,29.958784103393555)" style="fill:rgb(255, 255, 255);transform:matrix(1, 0, 0, 1, 0, 29.9588);;animation:none"></path>
<path fill="#fff" d="M1799.5 405.8357080424167 L1799.5 431.51298774940966 A15 15 0 0 0 1830.5 431.51298774940966 L1830.5 405.8357080424167 A15 15 0 0 0 1799.5 405.8357080424167" transform="matrix(1,0,0,1,0,421.8955993652344)" opacity="0.80357" style="fill:rgb(255, 255, 255);transform:matrix(1, 0, 0, 1, 0, 421.896);opacity:0.80357;;animation:none"></path>
<path fill="#fff" d="M1829.5 -300 L1829.5 434.7857515120802 A15 15 0 0 1 1860.5 434.7857515120802 L1860.5 -300" transform="matrix(1,0,0,1,0,-25.275074005126953)" style="fill:rgb(255, 255, 255);transform:matrix(1, 0, 0, 1, 0, -25.2751);;animation:none"></path>
<path fill="#000" d="M1829.5 -41.858639829542156 L1829.5 -29.999999999999996 A15 15 0 0 0 1860.5 -29.999999999999996 L1860.5 -41.858639829542156 A15 15 0 0 0 1829.5 -41.858639829542156" transform="matrix(1,0,0,1,0,0)" opacity="0.401786" style="fill:rgb(0, 0, 0);transform:matrix(1, 0, 0, 1, 0, 0);opacity:0.401786;;animation:none"></path>
<path fill="#fff" d="M1859.5 -300 L1859.5 462.3644470149384 A15 15 0 0 0 1890.5 462.3644470149384 L1890.5 -300" transform="matrix(1,0,0,1,0,11.743328094482422)" style="fill:rgb(255, 255, 255);transform:matrix(1, 0, 0, 1, 0, 11.7433);;animation:none"></path>
<path fill="#fff" d="M1859.5 409.522806362853 L1859.5 432.3644470149384 A15 15 0 0 0 1890.5 432.3644470149384 L1890.5 409.522806362853 A15 15 0 0 0 1859.5 409.522806362853" transform="matrix(1,0,0,1,0,479.0594482421875)" opacity="0.401784" style="fill:rgb(255, 255, 255);transform:matrix(1, 0, 0, 1, 0, 479.059);opacity:0.401784;;animation:none"></path>
<path fill="#fff" d="M1889.5 -300 L1889.5 443.5969108002421 A15 15 0 0 1 1920.5 443.5969108002421 L1920.5 -300" transform="matrix(1,0,0,1,0,-2.757091522216797)" style="fill:rgb(255, 255, 255);transform:matrix(1, 0, 0, 1, 0, -2.75709);;animation:none"></path>
<path fill="#000" d="M1889.5 -59.21536772132518 L1889.5 -30.000000000000004 A15 15 0 0 0 1920.5 -30.000000000000004 L1920.5 -59.21536772132518 A15 15 0 0 0 1889.5 -59.21536772132518" transform="matrix(1,0,0,1,0,0)" opacity="0.0669643" style="fill:rgb(0, 0, 0);transform:matrix(1, 0, 0, 1, 0, 0);opacity:0.0669643;;animation:none"></path></g></mask></defs>


<rect mask="url(#ldbk-photon-hmtduo7bze8-mask)" fill="url(#ldbk-photon-hmtduo7bze8-lg)" height="919" width="1920" y="0" x="0" style="fill:url('#ldbk-photon-hmtduo7bze8-lg');;animation:none"></rect>
<g></g></g><!-- [ldio] generated by https://loading.io --></svg>